%TF.GenerationSoftware,KiCad,Pcbnew,0.201511171411+6319~30~ubuntu15.10.1-product*%
%TF.CreationDate,2015-12-04T10:58:07+01:00*%
%TF.ProjectId,ESC-Base,4553432D426173652E6B696361645F70,rev?*%
%TF.FileFunction,Legend,Bot*%
%FSLAX46Y46*%
G04 Gerber Fmt 4.6, Leading zero omitted, Abs format (unit mm)*
G04 Created by KiCad (PCBNEW 0.201511171411+6319~30~ubuntu15.10.1-product) date Fr 04 Dez 2015 10:58:07 CET*
%MOMM*%
G01*
G04 APERTURE LIST*
%ADD10C,0.100000*%
%ADD11C,0.300000*%
%ADD12C,0.200000*%
%ADD13C,0.203200*%
%ADD14C,0.150000*%
%ADD15C,0.099060*%
%ADD16C,0.152400*%
G04 APERTURE END LIST*
D10*
D11*
X71717857Y-133342286D02*
X71717857Y-133842286D01*
X72503571Y-134056572D02*
X72503571Y-133342286D01*
X71003571Y-133342286D01*
X71003571Y-134056572D01*
X72432143Y-134628000D02*
X72503571Y-134842286D01*
X72503571Y-135199429D01*
X72432143Y-135342286D01*
X72360714Y-135413715D01*
X72217857Y-135485143D01*
X72075000Y-135485143D01*
X71932143Y-135413715D01*
X71860714Y-135342286D01*
X71789286Y-135199429D01*
X71717857Y-134913715D01*
X71646429Y-134770857D01*
X71575000Y-134699429D01*
X71432143Y-134628000D01*
X71289286Y-134628000D01*
X71146429Y-134699429D01*
X71075000Y-134770857D01*
X71003571Y-134913715D01*
X71003571Y-135270857D01*
X71075000Y-135485143D01*
X72360714Y-136985143D02*
X72432143Y-136913714D01*
X72503571Y-136699428D01*
X72503571Y-136556571D01*
X72432143Y-136342286D01*
X72289286Y-136199428D01*
X72146429Y-136128000D01*
X71860714Y-136056571D01*
X71646429Y-136056571D01*
X71360714Y-136128000D01*
X71217857Y-136199428D01*
X71075000Y-136342286D01*
X71003571Y-136556571D01*
X71003571Y-136699428D01*
X71075000Y-136913714D01*
X71146429Y-136985143D01*
X74832143Y-130592286D02*
X74903571Y-130449429D01*
X74903571Y-130163715D01*
X74832143Y-130020857D01*
X74760714Y-129949429D01*
X74617857Y-129878000D01*
X74189286Y-129878000D01*
X74046429Y-129949429D01*
X73975000Y-130020857D01*
X73903571Y-130163715D01*
X73903571Y-130449429D01*
X73975000Y-130592286D01*
X74903571Y-131449429D02*
X74832143Y-131306571D01*
X74760714Y-131235143D01*
X74617857Y-131163714D01*
X74189286Y-131163714D01*
X74046429Y-131235143D01*
X73975000Y-131306571D01*
X73903571Y-131449429D01*
X73903571Y-131663714D01*
X73975000Y-131806571D01*
X74046429Y-131878000D01*
X74189286Y-131949429D01*
X74617857Y-131949429D01*
X74760714Y-131878000D01*
X74832143Y-131806571D01*
X74903571Y-131663714D01*
X74903571Y-131449429D01*
X73903571Y-132592286D02*
X74903571Y-132592286D01*
X74046429Y-132592286D02*
X73975000Y-132663714D01*
X73903571Y-132806572D01*
X73903571Y-133020857D01*
X73975000Y-133163714D01*
X74117857Y-133235143D01*
X74903571Y-133235143D01*
X73903571Y-133949429D02*
X74903571Y-133949429D01*
X74046429Y-133949429D02*
X73975000Y-134020857D01*
X73903571Y-134163715D01*
X73903571Y-134378000D01*
X73975000Y-134520857D01*
X74117857Y-134592286D01*
X74903571Y-134592286D01*
X74832143Y-135878000D02*
X74903571Y-135735143D01*
X74903571Y-135449429D01*
X74832143Y-135306572D01*
X74689286Y-135235143D01*
X74117857Y-135235143D01*
X73975000Y-135306572D01*
X73903571Y-135449429D01*
X73903571Y-135735143D01*
X73975000Y-135878000D01*
X74117857Y-135949429D01*
X74260714Y-135949429D01*
X74403571Y-135235143D01*
X74832143Y-137235143D02*
X74903571Y-137092286D01*
X74903571Y-136806572D01*
X74832143Y-136663714D01*
X74760714Y-136592286D01*
X74617857Y-136520857D01*
X74189286Y-136520857D01*
X74046429Y-136592286D01*
X73975000Y-136663714D01*
X73903571Y-136806572D01*
X73903571Y-137092286D01*
X73975000Y-137235143D01*
X73903571Y-137663714D02*
X73903571Y-138235143D01*
X73403571Y-137878000D02*
X74689286Y-137878000D01*
X74832143Y-137949428D01*
X74903571Y-138092286D01*
X74903571Y-138235143D01*
X74903571Y-138949429D02*
X74832143Y-138806571D01*
X74760714Y-138735143D01*
X74617857Y-138663714D01*
X74189286Y-138663714D01*
X74046429Y-138735143D01*
X73975000Y-138806571D01*
X73903571Y-138949429D01*
X73903571Y-139163714D01*
X73975000Y-139306571D01*
X74046429Y-139378000D01*
X74189286Y-139449429D01*
X74617857Y-139449429D01*
X74760714Y-139378000D01*
X74832143Y-139306571D01*
X74903571Y-139163714D01*
X74903571Y-138949429D01*
X74903571Y-140092286D02*
X73903571Y-140092286D01*
X74189286Y-140092286D02*
X74046429Y-140163714D01*
X73975000Y-140235143D01*
X73903571Y-140378000D01*
X73903571Y-140520857D01*
D12*
X75692000Y-112776000D02*
X76200000Y-112776000D01*
X70104000Y-112776000D02*
X71120000Y-112776000D01*
X69088000Y-113792000D02*
X70104000Y-112776000D01*
X69088000Y-126746000D02*
X69088000Y-113792000D01*
X62230000Y-113538000D02*
X62230000Y-126746000D01*
X61214000Y-112522000D02*
X62230000Y-113538000D01*
X60706000Y-112522000D02*
X61214000Y-112522000D01*
X55626000Y-112522000D02*
X56134000Y-112522000D01*
X54356000Y-113792000D02*
X55626000Y-112522000D01*
X54356000Y-126746000D02*
X54356000Y-113792000D01*
X50546000Y-92964000D02*
X50546000Y-84836000D01*
X49276000Y-94234000D02*
X50546000Y-92964000D01*
X44704000Y-94234000D02*
X49276000Y-94234000D01*
X61214000Y-127762000D02*
X62230000Y-126746000D01*
X55372000Y-127762000D02*
X61214000Y-127762000D01*
X54356000Y-126746000D02*
X55372000Y-127762000D01*
X70358000Y-128016000D02*
X69088000Y-126746000D01*
X76200000Y-128016000D02*
X70358000Y-128016000D01*
D13*
X44958000Y-97790000D02*
X44958000Y-94742000D01*
X44958000Y-94742000D02*
X52070000Y-94742000D01*
X52070000Y-94742000D02*
X52070000Y-97790000D01*
X44958000Y-100838000D02*
X44958000Y-101600000D01*
X44958000Y-101600000D02*
X46482000Y-103886000D01*
X46482000Y-103886000D02*
X50546000Y-103886000D01*
X50546000Y-103886000D02*
X52070000Y-101600000D01*
X52070000Y-101600000D02*
X52070000Y-100838000D01*
D14*
X62357000Y-86106000D02*
X62357000Y-87503000D01*
X62230000Y-85852000D02*
X62230000Y-87630000D01*
X62103000Y-85471000D02*
X62103000Y-88011000D01*
X61976000Y-88138000D02*
X61976000Y-85344000D01*
X61849000Y-85217000D02*
X61849000Y-88265000D01*
X61722000Y-88392000D02*
X61722000Y-85090000D01*
X61595000Y-84963000D02*
X61595000Y-88519000D01*
X62738000Y-84074000D02*
X58166000Y-84074000D01*
X58166000Y-84074000D02*
X57404000Y-84836000D01*
X57404000Y-84836000D02*
X57404000Y-88646000D01*
X57404000Y-88646000D02*
X58166000Y-89408000D01*
X58166000Y-89408000D02*
X62738000Y-89408000D01*
X62738000Y-89408000D02*
X62738000Y-84074000D01*
X57912000Y-86741000D02*
X58674000Y-86741000D01*
X58293000Y-86360000D02*
X58293000Y-87122000D01*
X62484000Y-86741000D02*
G75*
G03X62484000Y-86741000I-2413000J0D01*
G01*
X54483000Y-92138500D02*
X54864000Y-92138500D01*
X53467000Y-92138500D02*
X53848000Y-92138500D01*
X53848000Y-92138500D02*
X54483000Y-92519500D01*
X54483000Y-92519500D02*
X54483000Y-91757500D01*
X54483000Y-91757500D02*
X53848000Y-92138500D01*
X53848000Y-92646500D02*
X53848000Y-91630500D01*
X52165500Y-91238500D02*
X55705500Y-91238500D01*
X52165500Y-93038500D02*
X55705500Y-93038500D01*
X59110500Y-91527000D02*
X58110500Y-91527000D01*
X58110500Y-92877000D02*
X59110500Y-92877000D01*
X66969000Y-91686000D02*
X66969000Y-90686000D01*
X65619000Y-90686000D02*
X65619000Y-91686000D01*
X70969500Y-91686000D02*
X70969500Y-90686000D01*
X69619500Y-90686000D02*
X69619500Y-91686000D01*
X69255000Y-91686000D02*
X69255000Y-90686000D01*
X67905000Y-90686000D02*
X67905000Y-91686000D01*
X54697000Y-105926000D02*
X54697000Y-106926000D01*
X56047000Y-106926000D02*
X56047000Y-105926000D01*
X72985000Y-103894000D02*
X72985000Y-104894000D01*
X74335000Y-104894000D02*
X74335000Y-103894000D01*
D15*
X56324500Y-108966000D02*
X60388500Y-108966000D01*
X56324500Y-112776000D02*
X60388500Y-112776000D01*
X60388500Y-112776000D02*
X60388500Y-108966000D01*
X56324500Y-109093000D02*
X56324500Y-108966000D01*
X56324500Y-112776000D02*
X56324500Y-109093000D01*
X56324500Y-111379000D02*
X56832500Y-111379000D01*
X56832500Y-111379000D02*
X56832500Y-110363000D01*
X56832500Y-110363000D02*
X56324500Y-110363000D01*
X71374000Y-109474000D02*
X75438000Y-109474000D01*
X71374000Y-113284000D02*
X75438000Y-113284000D01*
X75438000Y-113284000D02*
X75438000Y-109474000D01*
X71374000Y-109601000D02*
X71374000Y-109474000D01*
X71374000Y-113284000D02*
X71374000Y-109601000D01*
X71374000Y-111887000D02*
X71882000Y-111887000D01*
X71882000Y-111887000D02*
X71882000Y-110871000D01*
X71882000Y-110871000D02*
X71374000Y-110871000D01*
D13*
X49288095Y-99519619D02*
X49288095Y-100342095D01*
X49239714Y-100438857D01*
X49191333Y-100487238D01*
X49094571Y-100535619D01*
X48901048Y-100535619D01*
X48804286Y-100487238D01*
X48755905Y-100438857D01*
X48707524Y-100342095D01*
X48707524Y-99519619D01*
X47691524Y-100535619D02*
X48272095Y-100535619D01*
X47981809Y-100535619D02*
X47981809Y-99519619D01*
X48078571Y-99664762D01*
X48175333Y-99761524D01*
X48272095Y-99809905D01*
D14*
X60110666Y-90527143D02*
X60158285Y-90574762D01*
X60301142Y-90622381D01*
X60396380Y-90622381D01*
X60539238Y-90574762D01*
X60634476Y-90479524D01*
X60682095Y-90384286D01*
X60729714Y-90193810D01*
X60729714Y-90050952D01*
X60682095Y-89860476D01*
X60634476Y-89765238D01*
X60539238Y-89670000D01*
X60396380Y-89622381D01*
X60301142Y-89622381D01*
X60158285Y-89670000D01*
X60110666Y-89717619D01*
X59253523Y-89955714D02*
X59253523Y-90622381D01*
X59491619Y-89574762D02*
X59729714Y-90289048D01*
X59110666Y-90289048D01*
X54967095Y-94178381D02*
X54967095Y-93178381D01*
X54729000Y-93178381D01*
X54586142Y-93226000D01*
X54490904Y-93321238D01*
X54443285Y-93416476D01*
X54395666Y-93606952D01*
X54395666Y-93749810D01*
X54443285Y-93940286D01*
X54490904Y-94035524D01*
X54586142Y-94130762D01*
X54729000Y-94178381D01*
X54967095Y-94178381D01*
X53443285Y-94178381D02*
X54014714Y-94178381D01*
X53729000Y-94178381D02*
X53729000Y-93178381D01*
X53824238Y-93321238D01*
X53919476Y-93416476D01*
X54014714Y-93464095D01*
X58713666Y-94051381D02*
X59047000Y-93575190D01*
X59285095Y-94051381D02*
X59285095Y-93051381D01*
X58904142Y-93051381D01*
X58808904Y-93099000D01*
X58761285Y-93146619D01*
X58713666Y-93241857D01*
X58713666Y-93384714D01*
X58761285Y-93479952D01*
X58808904Y-93527571D01*
X58904142Y-93575190D01*
X59285095Y-93575190D01*
X57761285Y-94051381D02*
X58332714Y-94051381D01*
X58047000Y-94051381D02*
X58047000Y-93051381D01*
X58142238Y-93194238D01*
X58237476Y-93289476D01*
X58332714Y-93337095D01*
X66746381Y-87971334D02*
X66270190Y-87638000D01*
X66746381Y-87399905D02*
X65746381Y-87399905D01*
X65746381Y-87780858D01*
X65794000Y-87876096D01*
X65841619Y-87923715D01*
X65936857Y-87971334D01*
X66079714Y-87971334D01*
X66174952Y-87923715D01*
X66222571Y-87876096D01*
X66270190Y-87780858D01*
X66270190Y-87399905D01*
X65746381Y-88304667D02*
X65746381Y-88923715D01*
X66127333Y-88590381D01*
X66127333Y-88733239D01*
X66174952Y-88828477D01*
X66222571Y-88876096D01*
X66317810Y-88923715D01*
X66555905Y-88923715D01*
X66651143Y-88876096D01*
X66698762Y-88828477D01*
X66746381Y-88733239D01*
X66746381Y-88447524D01*
X66698762Y-88352286D01*
X66651143Y-88304667D01*
X70810381Y-88225334D02*
X70334190Y-87892000D01*
X70810381Y-87653905D02*
X69810381Y-87653905D01*
X69810381Y-88034858D01*
X69858000Y-88130096D01*
X69905619Y-88177715D01*
X70000857Y-88225334D01*
X70143714Y-88225334D01*
X70238952Y-88177715D01*
X70286571Y-88130096D01*
X70334190Y-88034858D01*
X70334190Y-87653905D01*
X69810381Y-89130096D02*
X69810381Y-88653905D01*
X70286571Y-88606286D01*
X70238952Y-88653905D01*
X70191333Y-88749143D01*
X70191333Y-88987239D01*
X70238952Y-89082477D01*
X70286571Y-89130096D01*
X70381810Y-89177715D01*
X70619905Y-89177715D01*
X70715143Y-89130096D01*
X70762762Y-89082477D01*
X70810381Y-88987239D01*
X70810381Y-88749143D01*
X70762762Y-88653905D01*
X70715143Y-88606286D01*
X69032381Y-88098334D02*
X68556190Y-87765000D01*
X69032381Y-87526905D02*
X68032381Y-87526905D01*
X68032381Y-87907858D01*
X68080000Y-88003096D01*
X68127619Y-88050715D01*
X68222857Y-88098334D01*
X68365714Y-88098334D01*
X68460952Y-88050715D01*
X68508571Y-88003096D01*
X68556190Y-87907858D01*
X68556190Y-87526905D01*
X68032381Y-88955477D02*
X68032381Y-88765000D01*
X68080000Y-88669762D01*
X68127619Y-88622143D01*
X68270476Y-88526905D01*
X68460952Y-88479286D01*
X68841905Y-88479286D01*
X68937143Y-88526905D01*
X68984762Y-88574524D01*
X69032381Y-88669762D01*
X69032381Y-88860239D01*
X68984762Y-88955477D01*
X68937143Y-89003096D01*
X68841905Y-89050715D01*
X68603810Y-89050715D01*
X68508571Y-89003096D01*
X68460952Y-88955477D01*
X68413333Y-88860239D01*
X68413333Y-88669762D01*
X68460952Y-88574524D01*
X68508571Y-88526905D01*
X68603810Y-88479286D01*
X57348381Y-106259334D02*
X56872190Y-105926000D01*
X57348381Y-105687905D02*
X56348381Y-105687905D01*
X56348381Y-106068858D01*
X56396000Y-106164096D01*
X56443619Y-106211715D01*
X56538857Y-106259334D01*
X56681714Y-106259334D01*
X56776952Y-106211715D01*
X56824571Y-106164096D01*
X56872190Y-106068858D01*
X56872190Y-105687905D01*
X56348381Y-106592667D02*
X56348381Y-107259334D01*
X57348381Y-106830762D01*
X75636381Y-104227334D02*
X75160190Y-103894000D01*
X75636381Y-103655905D02*
X74636381Y-103655905D01*
X74636381Y-104036858D01*
X74684000Y-104132096D01*
X74731619Y-104179715D01*
X74826857Y-104227334D01*
X74969714Y-104227334D01*
X75064952Y-104179715D01*
X75112571Y-104132096D01*
X75160190Y-104036858D01*
X75160190Y-103655905D01*
X75636381Y-104703524D02*
X75636381Y-104894000D01*
X75588762Y-104989239D01*
X75541143Y-105036858D01*
X75398286Y-105132096D01*
X75207810Y-105179715D01*
X74826857Y-105179715D01*
X74731619Y-105132096D01*
X74684000Y-105084477D01*
X74636381Y-104989239D01*
X74636381Y-104798762D01*
X74684000Y-104703524D01*
X74731619Y-104655905D01*
X74826857Y-104608286D01*
X75064952Y-104608286D01*
X75160190Y-104655905D01*
X75207810Y-104703524D01*
X75255429Y-104798762D01*
X75255429Y-104989239D01*
X75207810Y-105084477D01*
X75160190Y-105132096D01*
X75064952Y-105179715D01*
D16*
X59227357Y-111134071D02*
X59227357Y-112059357D01*
X59172929Y-112168214D01*
X59118500Y-112222643D01*
X59009643Y-112277071D01*
X58791929Y-112277071D01*
X58683071Y-112222643D01*
X58628643Y-112168214D01*
X58574214Y-112059357D01*
X58574214Y-111134071D01*
X57540071Y-111134071D02*
X57757785Y-111134071D01*
X57866642Y-111188500D01*
X57921071Y-111242929D01*
X58029928Y-111406214D01*
X58084357Y-111623929D01*
X58084357Y-112059357D01*
X58029928Y-112168214D01*
X57975500Y-112222643D01*
X57866642Y-112277071D01*
X57648928Y-112277071D01*
X57540071Y-112222643D01*
X57485642Y-112168214D01*
X57431214Y-112059357D01*
X57431214Y-111787214D01*
X57485642Y-111678357D01*
X57540071Y-111623929D01*
X57648928Y-111569500D01*
X57866642Y-111569500D01*
X57975500Y-111623929D01*
X58029928Y-111678357D01*
X58084357Y-111787214D01*
X74276857Y-111642071D02*
X74276857Y-112567357D01*
X74222429Y-112676214D01*
X74168000Y-112730643D01*
X74059143Y-112785071D01*
X73841429Y-112785071D01*
X73732571Y-112730643D01*
X73678143Y-112676214D01*
X73623714Y-112567357D01*
X73623714Y-111642071D01*
X73188285Y-111642071D02*
X72426285Y-111642071D01*
X72916142Y-112785071D01*
M02*
