%TF.GenerationSoftware,KiCad,Pcbnew,0.201511171411+6319~30~ubuntu15.10.1-product*%
%TF.CreationDate,2015-12-04T10:58:07+01:00*%
%TF.ProjectId,ESC-Base,4553432D426173652E6B696361645F70,rev?*%
%TF.FileFunction,Copper,L1,Top,Signal*%
%FSLAX46Y46*%
G04 Gerber Fmt 4.6, Leading zero omitted, Abs format (unit mm)*
G04 Created by KiCad (PCBNEW 0.201511171411+6319~30~ubuntu15.10.1-product) date Fr 04 Dez 2015 10:58:07 CET*
%MOMM*%
G01*
G04 APERTURE LIST*
%ADD10C,0.100000*%
%ADD11R,4.000000X5.000000*%
%ADD12O,4.000000X6.000000*%
%ADD13R,4.000000X4.000000*%
%ADD14O,4.000000X4.000000*%
%ADD15C,4.000000*%
%ADD16R,1.727200X2.032000*%
%ADD17O,1.727200X2.032000*%
%ADD18R,1.500000X1.250000*%
%ADD19R,1.250000X1.500000*%
%ADD20R,2.032000X1.727200*%
%ADD21O,2.032000X1.727200*%
%ADD22R,0.900000X1.200000*%
%ADD23R,1.200000X0.900000*%
%ADD24R,0.500000X2.000000*%
%ADD25R,10.500000X7.400000*%
%ADD26R,2.200000X2.200000*%
%ADD27R,1.143000X0.508000*%
%ADD28R,1.300480X0.800100*%
%ADD29C,0.600000*%
%ADD30C,0.508000*%
%ADD31C,0.250000*%
%ADD32C,0.254000*%
%ADD33C,2.540000*%
G04 APERTURE END LIST*
D10*
D11*
X65278000Y-123698000D03*
D12*
X65278000Y-115798000D03*
D11*
X50292000Y-123698000D03*
D12*
X50292000Y-115798000D03*
D13*
X60261500Y-96837500D03*
D14*
X55181500Y-96837500D03*
D13*
X67818000Y-138938000D03*
D15*
X62738000Y-138938000D03*
X57658000Y-138938000D03*
X52578000Y-138938000D03*
D13*
X67818000Y-132842000D03*
D15*
X62738000Y-132842000D03*
X57658000Y-132842000D03*
X52578000Y-132842000D03*
D16*
X74930000Y-126746000D03*
D17*
X72390000Y-126746000D03*
X69850000Y-126746000D03*
X74930000Y-124206000D03*
X72390000Y-124206000D03*
X69850000Y-124206000D03*
D16*
X60706000Y-125984000D03*
D17*
X58166000Y-125984000D03*
X55626000Y-125984000D03*
X60706000Y-123444000D03*
X58166000Y-123444000D03*
X55626000Y-123444000D03*
D18*
X49764000Y-99504500D03*
X47264000Y-99504500D03*
X49764000Y-97282000D03*
X47264000Y-97282000D03*
X49764000Y-102362000D03*
X47264000Y-102362000D03*
D19*
X61023500Y-88412000D03*
X61023500Y-90912000D03*
X60960000Y-111041500D03*
X60960000Y-108541500D03*
D18*
X73830500Y-115252500D03*
X71330500Y-115252500D03*
D19*
X58801000Y-112819500D03*
X58801000Y-110319500D03*
X73914000Y-113137000D03*
X73914000Y-110637000D03*
D20*
X47244000Y-91948000D03*
D21*
X47244000Y-89408000D03*
X47244000Y-86868000D03*
D22*
X49720500Y-88539500D03*
X49720500Y-86339500D03*
D23*
X68029000Y-87249000D03*
X65829000Y-87249000D03*
D22*
X57023000Y-120099000D03*
X57023000Y-117899000D03*
X71882000Y-120416500D03*
X71882000Y-118216500D03*
D24*
X70332000Y-103186000D03*
X71132000Y-103186000D03*
X69532000Y-103186000D03*
X68732000Y-103186000D03*
X67932000Y-103186000D03*
X67132000Y-103186000D03*
X66332000Y-103186000D03*
X65532000Y-103186000D03*
X65532000Y-91186000D03*
X66332000Y-91186000D03*
X67132000Y-91186000D03*
X67932000Y-91186000D03*
X68732000Y-91186000D03*
X69532000Y-91186000D03*
X71132000Y-91186000D03*
X70332000Y-91186000D03*
D25*
X68332000Y-97186000D03*
D26*
X68332000Y-97186000D03*
X66332000Y-97186000D03*
X66332000Y-95186000D03*
X68332000Y-99186000D03*
X70332000Y-97186000D03*
X70332000Y-99186000D03*
X70332000Y-95186000D03*
X68332000Y-95186000D03*
X66332000Y-99186000D03*
D27*
X56769000Y-107823000D03*
X56769000Y-109093000D03*
X56769000Y-110363000D03*
X56769000Y-111633000D03*
X50419000Y-111633000D03*
X50419000Y-110363000D03*
X50419000Y-109093000D03*
X50419000Y-107823000D03*
X71755000Y-108077000D03*
X71755000Y-109347000D03*
X71755000Y-110617000D03*
X71755000Y-111887000D03*
X65405000Y-111887000D03*
X65405000Y-110617000D03*
X65405000Y-109347000D03*
X65405000Y-108077000D03*
D28*
X51866800Y-90932000D03*
X51866800Y-88392000D03*
X58369200Y-88392000D03*
X58369200Y-90932000D03*
D19*
X62865000Y-87737000D03*
X62865000Y-85237000D03*
D23*
X49741000Y-84328000D03*
X47541000Y-84328000D03*
X74379000Y-88265000D03*
X72179000Y-88265000D03*
D28*
X51866800Y-86741000D03*
X51866800Y-84201000D03*
X58369200Y-84201000D03*
X58369200Y-86741000D03*
D29*
X51308000Y-99441000D03*
X45593000Y-99441000D03*
X50165000Y-129921000D03*
X50165000Y-130937000D03*
X49149000Y-130937000D03*
X48133000Y-130937000D03*
X47117000Y-130937000D03*
X47117000Y-129921000D03*
X48133000Y-129921000D03*
X49149000Y-129921000D03*
X69469000Y-130302000D03*
X70485000Y-130302000D03*
X71501000Y-130302000D03*
X72517000Y-130302000D03*
X72517000Y-129286000D03*
X71501000Y-129286000D03*
X70485000Y-129286000D03*
X69469000Y-129286000D03*
X74739500Y-90487500D03*
X67627500Y-88773000D03*
X51435000Y-101155500D03*
X59436000Y-88392000D03*
X55372000Y-113982500D03*
X70358000Y-114046000D03*
X49022000Y-106680000D03*
X50038000Y-106680000D03*
X51054000Y-106680000D03*
X52070000Y-106680000D03*
X52070000Y-107823000D03*
X52070000Y-108712000D03*
X53086000Y-108712000D03*
X53086000Y-107696000D03*
X64516000Y-103124000D03*
X63500000Y-103124000D03*
X62484000Y-103124000D03*
X61468000Y-103124000D03*
X60452000Y-103124000D03*
X59436000Y-103124000D03*
X59436000Y-104140000D03*
X60452000Y-104140000D03*
X61468000Y-104140000D03*
X62484000Y-104140000D03*
X63500000Y-104140000D03*
X64516000Y-104140000D03*
X69532000Y-104902000D03*
X70485000Y-104902000D03*
X66675000Y-109347000D03*
X67818000Y-109220000D03*
X67818000Y-108204000D03*
X66802000Y-108204000D03*
X66294000Y-107188000D03*
X65278000Y-107188000D03*
X64262000Y-107188000D03*
X64262000Y-108204000D03*
X71882000Y-103378000D03*
X71882000Y-104394000D03*
X71882000Y-105410000D03*
X71120000Y-106172000D03*
X70104000Y-106172000D03*
X58229500Y-121412000D03*
X74739500Y-121221500D03*
X73088500Y-121285000D03*
X71882000Y-121729500D03*
X47752000Y-117856000D03*
X47752000Y-116840000D03*
X47752000Y-115824000D03*
X47752000Y-114808000D03*
X47752000Y-113792000D03*
X47752000Y-112776000D03*
X51816000Y-112395000D03*
X52578000Y-113030000D03*
X53086000Y-113665000D03*
X53086000Y-114681000D03*
X53086000Y-115697000D03*
X53086000Y-116713000D03*
X52832000Y-117729000D03*
X66675000Y-112522000D03*
X67564000Y-113030000D03*
X68072000Y-113919000D03*
X68072000Y-114935000D03*
X68072000Y-115951000D03*
X68072000Y-116967000D03*
X67691000Y-117983000D03*
X62738000Y-112776000D03*
X62738000Y-113792000D03*
X62738000Y-114808000D03*
X62738000Y-115824000D03*
X62738000Y-116840000D03*
X62738000Y-117856000D03*
X62738000Y-98552000D03*
X62738000Y-99314000D03*
X62738000Y-100076000D03*
X61976000Y-100076000D03*
X61214000Y-100076000D03*
X62738000Y-95758000D03*
X62738000Y-94996000D03*
X62738000Y-94234000D03*
X61976000Y-94234000D03*
X61214000Y-94234000D03*
X66738500Y-88709500D03*
X70231000Y-88963500D03*
X68707000Y-88900000D03*
D30*
X49764000Y-99504500D02*
X51244500Y-99504500D01*
X51244500Y-99504500D02*
X51308000Y-99441000D01*
X49764000Y-99504500D02*
X49764000Y-97282000D01*
X47264000Y-99504500D02*
X45656500Y-99504500D01*
X45656500Y-99504500D02*
X45593000Y-99441000D01*
X50546000Y-129540000D02*
X50165000Y-129921000D01*
X50165000Y-130937000D02*
X49149000Y-130937000D01*
X48133000Y-130937000D02*
X47117000Y-130937000D01*
X47117000Y-129921000D02*
X48133000Y-129921000D01*
X52578000Y-129540000D02*
X50546000Y-129540000D01*
X67564000Y-129286000D02*
X69469000Y-129286000D01*
X71501000Y-130302000D02*
X70485000Y-130302000D01*
X72517000Y-129286000D02*
X72517000Y-130302000D01*
X70485000Y-129286000D02*
X71501000Y-129286000D01*
D31*
X67627500Y-88773000D02*
X67627500Y-87650500D01*
X67627500Y-87650500D02*
X68029000Y-87249000D01*
D32*
X74739500Y-90487500D02*
X74506000Y-90254000D01*
X74506000Y-90254000D02*
X74506000Y-88138000D01*
X67932000Y-91186000D02*
X67932000Y-89077500D01*
X67932000Y-89077500D02*
X67627500Y-88773000D01*
D33*
X50292000Y-123698000D02*
X50292000Y-127254000D01*
X50292000Y-127254000D02*
X52578000Y-129540000D01*
X65278000Y-123698000D02*
X65278000Y-127000000D01*
X65278000Y-127000000D02*
X67564000Y-129286000D01*
X57658000Y-132842000D02*
X57658000Y-131064000D01*
X57658000Y-131064000D02*
X59436000Y-129286000D01*
X62738000Y-132842000D02*
X62738000Y-130302000D01*
X62738000Y-130302000D02*
X61722000Y-129286000D01*
X52578000Y-132842000D02*
X52578000Y-129540000D01*
X52578000Y-129540000D02*
X52832000Y-129286000D01*
X52832000Y-129286000D02*
X59436000Y-129286000D01*
X59436000Y-129286000D02*
X61722000Y-129286000D01*
X61722000Y-129286000D02*
X67564000Y-129286000D01*
X67564000Y-129286000D02*
X67818000Y-129540000D01*
X67818000Y-129540000D02*
X67818000Y-132842000D01*
X67818000Y-138938000D02*
X67818000Y-132842000D01*
X62738000Y-132842000D02*
X62738000Y-138938000D01*
X57658000Y-138938000D02*
X57658000Y-132842000D01*
X52578000Y-132842000D02*
X52578000Y-138938000D01*
D31*
X62865000Y-87737000D02*
X62758000Y-87737000D01*
X62758000Y-87737000D02*
X62083000Y-88412000D01*
X62083000Y-88412000D02*
X61023500Y-88412000D01*
X58369200Y-84201000D02*
X57023000Y-84201000D01*
X57404000Y-88392000D02*
X58369200Y-88392000D01*
X56896000Y-87884000D02*
X57404000Y-88392000D01*
X56896000Y-84328000D02*
X56896000Y-87884000D01*
X57023000Y-84201000D02*
X56896000Y-84328000D01*
X58369200Y-88392000D02*
X59436000Y-88392000D01*
D30*
X51435000Y-101155500D02*
X50228500Y-102362000D01*
X50228500Y-102362000D02*
X49764000Y-102362000D01*
X61070000Y-88392000D02*
X59436000Y-88392000D01*
D31*
X65829000Y-87249000D02*
X65829000Y-88857000D01*
X65829000Y-88857000D02*
X65532000Y-89154000D01*
X65532000Y-89154000D02*
X65532000Y-89281000D01*
D32*
X61023500Y-90912000D02*
X58516200Y-90912000D01*
X58516200Y-90912000D02*
X58432700Y-90995500D01*
X61070000Y-90932000D02*
X62230000Y-90932000D01*
X65532000Y-89154000D02*
X65532000Y-89281000D01*
X65532000Y-89281000D02*
X65532000Y-91186000D01*
X65278000Y-88900000D02*
X65405000Y-89027000D01*
X65405000Y-89027000D02*
X65532000Y-89154000D01*
X64262000Y-88900000D02*
X65278000Y-88900000D01*
X62230000Y-90932000D02*
X64262000Y-88900000D01*
D31*
X58801000Y-112819500D02*
X57955500Y-112819500D01*
X57955500Y-112819500D02*
X56769000Y-111633000D01*
X58801000Y-112819500D02*
X58209500Y-112819500D01*
X56769000Y-111633000D02*
X57277000Y-112141000D01*
D32*
X57955500Y-112819500D02*
X57277000Y-112141000D01*
X57023000Y-117899000D02*
X58504000Y-117899000D01*
X58504000Y-117899000D02*
X58801000Y-117602000D01*
X58801000Y-112819500D02*
X58801000Y-117602000D01*
X58801000Y-117602000D02*
X58801000Y-120205500D01*
X58801000Y-120205500D02*
X59436000Y-120840500D01*
X59436000Y-120840500D02*
X59436000Y-124714000D01*
X59436000Y-124714000D02*
X60706000Y-125984000D01*
X60960000Y-111041500D02*
X60960000Y-111633000D01*
X60960000Y-111633000D02*
X59773500Y-112819500D01*
X59773500Y-112819500D02*
X57955500Y-112819500D01*
X56769000Y-107823000D02*
X60241500Y-107823000D01*
X60241500Y-107823000D02*
X60960000Y-108541500D01*
X55372000Y-113982500D02*
X55181500Y-113792000D01*
X55181500Y-113792000D02*
X55181500Y-108458000D01*
X55181500Y-108458000D02*
X55816500Y-107823000D01*
X55816500Y-107823000D02*
X56769000Y-107823000D01*
X73830500Y-116268000D02*
X73830500Y-122321000D01*
X73830500Y-122321000D02*
X73660000Y-122491500D01*
X73660000Y-122491500D02*
X73660000Y-125476000D01*
X73660000Y-125476000D02*
X74930000Y-126746000D01*
X73830500Y-115252500D02*
X73830500Y-116268000D01*
X73830500Y-116268000D02*
X71882000Y-118216500D01*
X73914000Y-113137000D02*
X73914000Y-115169000D01*
X73914000Y-115169000D02*
X73830500Y-115252500D01*
X71755000Y-111887000D02*
X72664000Y-111887000D01*
X72664000Y-111887000D02*
X73914000Y-113137000D01*
X71330500Y-115252500D02*
X70802500Y-115252500D01*
X70802500Y-115252500D02*
X70358000Y-114808000D01*
X70358000Y-114808000D02*
X70358000Y-114046000D01*
X71755000Y-108077000D02*
X70866000Y-108077000D01*
X70866000Y-108077000D02*
X70358000Y-108585000D01*
X70358000Y-108585000D02*
X70358000Y-114046000D01*
X58801000Y-110319500D02*
X56812500Y-110319500D01*
X56812500Y-110319500D02*
X56769000Y-110363000D01*
X71755000Y-110617000D02*
X73894000Y-110617000D01*
X73894000Y-110617000D02*
X73914000Y-110637000D01*
X48895000Y-107823000D02*
X48895000Y-106807000D01*
X48895000Y-106807000D02*
X49022000Y-106680000D01*
X50038000Y-106680000D02*
X51054000Y-106680000D01*
X52070000Y-106680000D02*
X52070000Y-107823000D01*
X52070000Y-108712000D02*
X53086000Y-108712000D01*
X65532000Y-103186000D02*
X64578000Y-103186000D01*
X64578000Y-103186000D02*
X64516000Y-103124000D01*
X63500000Y-103124000D02*
X62484000Y-103124000D01*
X61468000Y-103124000D02*
X60452000Y-103124000D01*
X59436000Y-103124000D02*
X59436000Y-104140000D01*
X60452000Y-104140000D02*
X61468000Y-104140000D01*
X62484000Y-104140000D02*
X63500000Y-104140000D01*
X64516000Y-104140000D02*
X64516000Y-105156000D01*
X64516000Y-105156000D02*
X64516000Y-104902000D01*
X64516000Y-104902000D02*
X64516000Y-105156000D01*
D30*
X52578000Y-107950000D02*
X52578000Y-107696000D01*
X52578000Y-107696000D02*
X55118000Y-105156000D01*
X55118000Y-105156000D02*
X64516000Y-105156000D01*
X64516000Y-105156000D02*
X65786000Y-105156000D01*
X50419000Y-109093000D02*
X51689000Y-109093000D01*
X51689000Y-109093000D02*
X52578000Y-108204000D01*
X52578000Y-108204000D02*
X52578000Y-107950000D01*
X52578000Y-107950000D02*
X52451000Y-107823000D01*
X52451000Y-107823000D02*
X50419000Y-107823000D01*
X50419000Y-107823000D02*
X48895000Y-107823000D01*
X48895000Y-107823000D02*
X48768000Y-107950000D01*
X48768000Y-107950000D02*
X48768000Y-108712000D01*
X48768000Y-108712000D02*
X49149000Y-109093000D01*
X49149000Y-109093000D02*
X50419000Y-109093000D01*
X67132000Y-103186000D02*
X67132000Y-105156000D01*
X67132000Y-105156000D02*
X67056000Y-105080000D01*
X67056000Y-105080000D02*
X67056000Y-104902000D01*
X67056000Y-104902000D02*
X67056000Y-105156000D01*
X66332000Y-103186000D02*
X66332000Y-105156000D01*
X66332000Y-105156000D02*
X66294000Y-105156000D01*
X67932000Y-103186000D02*
X67932000Y-104788000D01*
X67932000Y-104788000D02*
X67564000Y-105156000D01*
X67564000Y-105156000D02*
X67056000Y-105156000D01*
X67056000Y-105156000D02*
X66294000Y-105156000D01*
X66294000Y-105156000D02*
X65786000Y-105156000D01*
X65786000Y-105156000D02*
X65532000Y-104902000D01*
X65532000Y-104902000D02*
X65532000Y-103186000D01*
D31*
X70485000Y-104902000D02*
X69532000Y-104902000D01*
D32*
X65405000Y-109347000D02*
X66675000Y-109347000D01*
X67818000Y-109220000D02*
X67818000Y-108204000D01*
X66802000Y-108204000D02*
X66294000Y-107696000D01*
X66294000Y-107696000D02*
X66294000Y-107188000D01*
X65278000Y-107188000D02*
X64262000Y-107188000D01*
X64262000Y-108204000D02*
X64008000Y-108458000D01*
X71132000Y-103186000D02*
X71690000Y-103186000D01*
X71690000Y-103186000D02*
X71882000Y-103378000D01*
X71882000Y-104394000D02*
X71882000Y-105410000D01*
X71120000Y-106172000D02*
X70104000Y-106172000D01*
D30*
X65405000Y-109347000D02*
X64389000Y-109347000D01*
X64389000Y-109347000D02*
X64008000Y-108966000D01*
X64008000Y-108966000D02*
X64008000Y-108458000D01*
X64008000Y-108458000D02*
X64389000Y-108077000D01*
X64389000Y-108077000D02*
X65405000Y-108077000D01*
X65405000Y-109347000D02*
X66675000Y-109347000D01*
X66675000Y-109347000D02*
X66929000Y-109093000D01*
X66929000Y-109093000D02*
X66929000Y-108077000D01*
X70332000Y-103186000D02*
X70332000Y-104674000D01*
X70332000Y-104674000D02*
X69850000Y-105156000D01*
X69532000Y-103186000D02*
X69532000Y-105156000D01*
X69532000Y-105156000D02*
X69596000Y-105092000D01*
X69596000Y-105092000D02*
X69596000Y-104902000D01*
X69596000Y-104902000D02*
X69596000Y-105156000D01*
X65405000Y-108077000D02*
X66929000Y-108077000D01*
X66929000Y-108077000D02*
X69850000Y-105156000D01*
X68732000Y-103186000D02*
X68732000Y-104800000D01*
X68732000Y-104800000D02*
X69088000Y-105156000D01*
X69088000Y-105156000D02*
X69596000Y-105156000D01*
X69596000Y-105156000D02*
X69850000Y-105156000D01*
X69850000Y-105156000D02*
X70866000Y-105156000D01*
X70866000Y-105156000D02*
X71132000Y-104890000D01*
X71132000Y-104890000D02*
X71132000Y-103186000D01*
D32*
X51866800Y-86741000D02*
X53340000Y-86741000D01*
X52959000Y-90932000D02*
X51866800Y-90932000D01*
X53467000Y-90424000D02*
X52959000Y-90932000D01*
X53467000Y-86868000D02*
X53467000Y-90424000D01*
X53340000Y-86741000D02*
X53467000Y-86868000D01*
D30*
X52070000Y-90932000D02*
X50292000Y-90932000D01*
X50292000Y-90932000D02*
X49276000Y-91948000D01*
X49276000Y-91948000D02*
X47244000Y-91948000D01*
D32*
X48006000Y-91948000D02*
X49276000Y-91948000D01*
X50292000Y-90932000D02*
X52070000Y-90932000D01*
X49276000Y-91948000D02*
X50292000Y-90932000D01*
X47244000Y-89408000D02*
X46482000Y-89408000D01*
X46482000Y-89408000D02*
X45593000Y-88519000D01*
X45593000Y-88519000D02*
X45593000Y-85217000D01*
X45593000Y-85217000D02*
X46482000Y-84328000D01*
X46482000Y-84328000D02*
X47541000Y-84328000D01*
D30*
X47244000Y-86868000D02*
X48196500Y-86868000D01*
X48196500Y-86868000D02*
X48725000Y-86339500D01*
X48725000Y-86339500D02*
X49720500Y-86339500D01*
D32*
X56769000Y-109093000D02*
X56134000Y-109093000D01*
X56134000Y-109093000D02*
X55689500Y-109537500D01*
X55689500Y-109537500D02*
X55689500Y-112839500D01*
X55689500Y-112839500D02*
X56197500Y-113347500D01*
X56197500Y-113347500D02*
X56197500Y-114173000D01*
X56197500Y-114173000D02*
X55689500Y-114681000D01*
X55689500Y-114681000D02*
X55689500Y-121348500D01*
X55689500Y-121348500D02*
X56324500Y-121983500D01*
X56324500Y-121983500D02*
X56832500Y-122491500D01*
X56832500Y-122491500D02*
X56832500Y-122618500D01*
X56832500Y-122618500D02*
X56896000Y-122682000D01*
X56896000Y-122682000D02*
X56896000Y-124714000D01*
X56896000Y-124714000D02*
X55626000Y-125984000D01*
X57023000Y-120099000D02*
X57023000Y-120205500D01*
X57023000Y-120205500D02*
X58229500Y-121412000D01*
X71755000Y-109347000D02*
X75247500Y-109347000D01*
X75247500Y-109347000D02*
X75311000Y-109410500D01*
X75311000Y-109410500D02*
X75311000Y-120650000D01*
X75311000Y-120650000D02*
X74739500Y-121221500D01*
X73088500Y-121285000D02*
X73025000Y-121348500D01*
X73025000Y-121348500D02*
X73025000Y-121856500D01*
X73025000Y-121856500D02*
X72326500Y-122555000D01*
X72326500Y-122555000D02*
X71628000Y-122555000D01*
X71628000Y-122555000D02*
X71120000Y-123063000D01*
X71120000Y-123063000D02*
X71120000Y-125476000D01*
X71120000Y-125476000D02*
X69850000Y-126746000D01*
X71882000Y-120416500D02*
X71882000Y-121729500D01*
X47752000Y-115824000D02*
X47752000Y-116840000D01*
X47752000Y-117856000D02*
X49810000Y-115798000D01*
X49810000Y-115798000D02*
X50292000Y-115798000D01*
X47778000Y-115798000D02*
X47752000Y-115824000D01*
X47752000Y-114808000D02*
X47752000Y-113792000D01*
X50292000Y-115798000D02*
X47778000Y-115798000D01*
X51689000Y-112268000D02*
X50292000Y-112268000D01*
X51816000Y-112395000D02*
X51689000Y-112268000D01*
X52578000Y-113157000D02*
X52578000Y-113030000D01*
X53086000Y-113665000D02*
X52578000Y-113157000D01*
X53086000Y-115697000D02*
X53086000Y-114681000D01*
X53086000Y-117475000D02*
X53086000Y-116713000D01*
X52832000Y-117729000D02*
X53086000Y-117475000D01*
D33*
X50292000Y-115798000D02*
X50292000Y-112268000D01*
X50292000Y-112268000D02*
X50292000Y-111760000D01*
X50292000Y-111760000D02*
X50419000Y-111633000D01*
D30*
X50419000Y-111633000D02*
X50419000Y-115671000D01*
X50419000Y-115671000D02*
X50292000Y-115798000D01*
X50419000Y-110363000D02*
X51689000Y-110363000D01*
X51689000Y-110363000D02*
X51816000Y-110490000D01*
X51816000Y-110490000D02*
X51816000Y-111252000D01*
X51816000Y-111252000D02*
X51435000Y-111633000D01*
X51435000Y-111633000D02*
X50419000Y-111633000D01*
X50419000Y-110363000D02*
X49149000Y-110363000D01*
X49149000Y-110363000D02*
X49022000Y-110490000D01*
X49022000Y-110490000D02*
X49022000Y-111506000D01*
X49022000Y-111506000D02*
X49149000Y-111633000D01*
X49149000Y-111633000D02*
X50419000Y-111633000D01*
D32*
X65278000Y-115798000D02*
X65506000Y-115798000D01*
X65506000Y-115798000D02*
X67691000Y-117983000D01*
X67056000Y-112522000D02*
X66675000Y-112522000D01*
X67564000Y-113030000D02*
X67056000Y-112522000D01*
X68072000Y-114935000D02*
X68072000Y-113919000D01*
X68072000Y-116967000D02*
X68072000Y-115951000D01*
X65278000Y-115798000D02*
X64796000Y-115798000D01*
X64796000Y-115798000D02*
X62738000Y-117856000D01*
X62738000Y-114808000D02*
X62738000Y-113792000D01*
X62738000Y-116840000D02*
X62738000Y-115824000D01*
X65405000Y-110617000D02*
X66421000Y-110617000D01*
X66421000Y-110617000D02*
X66802000Y-110998000D01*
X66802000Y-110998000D02*
X66802000Y-111506000D01*
X66802000Y-111506000D02*
X66421000Y-111887000D01*
X66421000Y-111887000D02*
X65405000Y-111887000D01*
X65405000Y-110617000D02*
X64135000Y-110617000D01*
X64135000Y-110617000D02*
X64008000Y-110744000D01*
X64008000Y-110744000D02*
X64008000Y-111506000D01*
X64008000Y-111506000D02*
X64389000Y-111887000D01*
X64389000Y-111887000D02*
X65405000Y-111887000D01*
D33*
X65278000Y-115798000D02*
X65278000Y-112014000D01*
X65278000Y-112014000D02*
X65405000Y-111887000D01*
D32*
X62738000Y-98552000D02*
X62738000Y-99314000D01*
X62738000Y-100076000D02*
X61976000Y-100076000D01*
X62484000Y-97186000D02*
X62580000Y-97186000D01*
X62580000Y-97186000D02*
X62738000Y-97028000D01*
X62738000Y-97028000D02*
X62738000Y-95758000D01*
X62738000Y-94996000D02*
X62738000Y-94234000D01*
X61976000Y-94234000D02*
X61214000Y-94234000D01*
D33*
X54864000Y-96774000D02*
X59944000Y-96774000D01*
X59944000Y-96774000D02*
X60356000Y-97186000D01*
X60356000Y-97186000D02*
X62484000Y-97186000D01*
X62484000Y-97186000D02*
X68332000Y-97186000D01*
D30*
X49720500Y-88539500D02*
X51922500Y-88539500D01*
X51922500Y-88539500D02*
X52070000Y-88392000D01*
D32*
X52070000Y-88392000D02*
X52070000Y-88138000D01*
X66332000Y-91186000D02*
X66332000Y-89116000D01*
X66332000Y-89116000D02*
X66738500Y-88709500D01*
X70332000Y-91186000D02*
X70332000Y-89064500D01*
X70332000Y-89064500D02*
X70231000Y-88963500D01*
X68707000Y-88900000D02*
X68732000Y-88925000D01*
X68732000Y-88925000D02*
X68732000Y-91186000D01*
D31*
X62865000Y-85237000D02*
X61194000Y-85237000D01*
X61194000Y-85237000D02*
X59690000Y-86741000D01*
X59690000Y-86741000D02*
X58369200Y-86741000D01*
X58369200Y-86741000D02*
X59690000Y-86741000D01*
X71132000Y-86626000D02*
X71132000Y-88150000D01*
X69743000Y-85237000D02*
X71132000Y-86626000D01*
X61194000Y-85237000D02*
X69743000Y-85237000D01*
X59690000Y-86741000D02*
X61194000Y-85237000D01*
D32*
X72306000Y-88138000D02*
X71183500Y-88138000D01*
X71183500Y-88138000D02*
X71144000Y-88138000D01*
X71144000Y-88138000D02*
X71132000Y-88150000D01*
X71132000Y-88150000D02*
X71132000Y-91186000D01*
X49741000Y-84328000D02*
X50673000Y-84328000D01*
X50800000Y-84201000D02*
X51866800Y-84201000D01*
X50673000Y-84328000D02*
X50800000Y-84201000D01*
G36*
X73787000Y-101219000D02*
X52451000Y-101219000D01*
X52451000Y-99471750D01*
X64597000Y-99471750D01*
X64597000Y-100412310D01*
X64693673Y-100645699D01*
X64872302Y-100824327D01*
X65105691Y-100921000D01*
X66046250Y-100921000D01*
X66205000Y-100762250D01*
X66205000Y-99313000D01*
X66459000Y-99313000D01*
X66459000Y-100762250D01*
X66617750Y-100921000D01*
X68046250Y-100921000D01*
X68205000Y-100762250D01*
X68205000Y-99313000D01*
X68459000Y-99313000D01*
X68459000Y-100762250D01*
X68617750Y-100921000D01*
X70046250Y-100921000D01*
X70205000Y-100762250D01*
X70205000Y-99313000D01*
X70459000Y-99313000D01*
X70459000Y-100762250D01*
X70617750Y-100921000D01*
X71558309Y-100921000D01*
X71791698Y-100824327D01*
X71970327Y-100645699D01*
X72067000Y-100412310D01*
X72067000Y-99471750D01*
X71908250Y-99313000D01*
X70459000Y-99313000D01*
X70205000Y-99313000D01*
X68459000Y-99313000D01*
X68205000Y-99313000D01*
X66459000Y-99313000D01*
X66205000Y-99313000D01*
X64755750Y-99313000D01*
X64597000Y-99471750D01*
X52451000Y-99471750D01*
X52451000Y-97471750D01*
X64597000Y-97471750D01*
X64597000Y-98900250D01*
X64755750Y-99059000D01*
X66205000Y-99059000D01*
X66205000Y-97313000D01*
X66459000Y-97313000D01*
X66459000Y-99059000D01*
X68205000Y-99059000D01*
X68205000Y-97313000D01*
X68459000Y-97313000D01*
X68459000Y-99059000D01*
X70205000Y-99059000D01*
X70205000Y-97313000D01*
X70459000Y-97313000D01*
X70459000Y-99059000D01*
X71908250Y-99059000D01*
X72067000Y-98900250D01*
X72067000Y-97471750D01*
X71908250Y-97313000D01*
X70459000Y-97313000D01*
X70205000Y-97313000D01*
X68459000Y-97313000D01*
X68205000Y-97313000D01*
X66459000Y-97313000D01*
X66205000Y-97313000D01*
X64755750Y-97313000D01*
X64597000Y-97471750D01*
X52451000Y-97471750D01*
X52451000Y-95471750D01*
X64597000Y-95471750D01*
X64597000Y-96900250D01*
X64755750Y-97059000D01*
X66205000Y-97059000D01*
X66205000Y-95313000D01*
X66459000Y-95313000D01*
X66459000Y-97059000D01*
X68205000Y-97059000D01*
X68205000Y-95313000D01*
X68459000Y-95313000D01*
X68459000Y-97059000D01*
X70205000Y-97059000D01*
X70205000Y-95313000D01*
X70459000Y-95313000D01*
X70459000Y-97059000D01*
X71908250Y-97059000D01*
X72067000Y-96900250D01*
X72067000Y-95471750D01*
X71908250Y-95313000D01*
X70459000Y-95313000D01*
X70205000Y-95313000D01*
X68459000Y-95313000D01*
X68205000Y-95313000D01*
X66459000Y-95313000D01*
X66205000Y-95313000D01*
X64755750Y-95313000D01*
X64597000Y-95471750D01*
X52451000Y-95471750D01*
X52451000Y-94794606D01*
X52630606Y-94615000D01*
X54356000Y-94615000D01*
X54405410Y-94604994D01*
X54445803Y-94577803D01*
X55063916Y-93959690D01*
X64597000Y-93959690D01*
X64597000Y-94900250D01*
X64755750Y-95059000D01*
X66205000Y-95059000D01*
X66205000Y-93609750D01*
X66459000Y-93609750D01*
X66459000Y-95059000D01*
X68205000Y-95059000D01*
X68205000Y-93609750D01*
X68459000Y-93609750D01*
X68459000Y-95059000D01*
X70205000Y-95059000D01*
X70205000Y-93609750D01*
X70459000Y-93609750D01*
X70459000Y-95059000D01*
X71908250Y-95059000D01*
X72067000Y-94900250D01*
X72067000Y-93959690D01*
X71970327Y-93726301D01*
X71791698Y-93547673D01*
X71558309Y-93451000D01*
X70617750Y-93451000D01*
X70459000Y-93609750D01*
X70205000Y-93609750D01*
X70046250Y-93451000D01*
X68617750Y-93451000D01*
X68459000Y-93609750D01*
X68205000Y-93609750D01*
X68046250Y-93451000D01*
X66617750Y-93451000D01*
X66459000Y-93609750D01*
X66205000Y-93609750D01*
X66046250Y-93451000D01*
X65105691Y-93451000D01*
X64872302Y-93547673D01*
X64693673Y-93726301D01*
X64597000Y-93959690D01*
X55063916Y-93959690D01*
X55678606Y-93345000D01*
X73787000Y-93345000D01*
X73787000Y-101219000D01*
X73787000Y-101219000D01*
G37*
X73787000Y-101219000D02*
X52451000Y-101219000D01*
X52451000Y-99471750D01*
X64597000Y-99471750D01*
X64597000Y-100412310D01*
X64693673Y-100645699D01*
X64872302Y-100824327D01*
X65105691Y-100921000D01*
X66046250Y-100921000D01*
X66205000Y-100762250D01*
X66205000Y-99313000D01*
X66459000Y-99313000D01*
X66459000Y-100762250D01*
X66617750Y-100921000D01*
X68046250Y-100921000D01*
X68205000Y-100762250D01*
X68205000Y-99313000D01*
X68459000Y-99313000D01*
X68459000Y-100762250D01*
X68617750Y-100921000D01*
X70046250Y-100921000D01*
X70205000Y-100762250D01*
X70205000Y-99313000D01*
X70459000Y-99313000D01*
X70459000Y-100762250D01*
X70617750Y-100921000D01*
X71558309Y-100921000D01*
X71791698Y-100824327D01*
X71970327Y-100645699D01*
X72067000Y-100412310D01*
X72067000Y-99471750D01*
X71908250Y-99313000D01*
X70459000Y-99313000D01*
X70205000Y-99313000D01*
X68459000Y-99313000D01*
X68205000Y-99313000D01*
X66459000Y-99313000D01*
X66205000Y-99313000D01*
X64755750Y-99313000D01*
X64597000Y-99471750D01*
X52451000Y-99471750D01*
X52451000Y-97471750D01*
X64597000Y-97471750D01*
X64597000Y-98900250D01*
X64755750Y-99059000D01*
X66205000Y-99059000D01*
X66205000Y-97313000D01*
X66459000Y-97313000D01*
X66459000Y-99059000D01*
X68205000Y-99059000D01*
X68205000Y-97313000D01*
X68459000Y-97313000D01*
X68459000Y-99059000D01*
X70205000Y-99059000D01*
X70205000Y-97313000D01*
X70459000Y-97313000D01*
X70459000Y-99059000D01*
X71908250Y-99059000D01*
X72067000Y-98900250D01*
X72067000Y-97471750D01*
X71908250Y-97313000D01*
X70459000Y-97313000D01*
X70205000Y-97313000D01*
X68459000Y-97313000D01*
X68205000Y-97313000D01*
X66459000Y-97313000D01*
X66205000Y-97313000D01*
X64755750Y-97313000D01*
X64597000Y-97471750D01*
X52451000Y-97471750D01*
X52451000Y-95471750D01*
X64597000Y-95471750D01*
X64597000Y-96900250D01*
X64755750Y-97059000D01*
X66205000Y-97059000D01*
X66205000Y-95313000D01*
X66459000Y-95313000D01*
X66459000Y-97059000D01*
X68205000Y-97059000D01*
X68205000Y-95313000D01*
X68459000Y-95313000D01*
X68459000Y-97059000D01*
X70205000Y-97059000D01*
X70205000Y-95313000D01*
X70459000Y-95313000D01*
X70459000Y-97059000D01*
X71908250Y-97059000D01*
X72067000Y-96900250D01*
X72067000Y-95471750D01*
X71908250Y-95313000D01*
X70459000Y-95313000D01*
X70205000Y-95313000D01*
X68459000Y-95313000D01*
X68205000Y-95313000D01*
X66459000Y-95313000D01*
X66205000Y-95313000D01*
X64755750Y-95313000D01*
X64597000Y-95471750D01*
X52451000Y-95471750D01*
X52451000Y-94794606D01*
X52630606Y-94615000D01*
X54356000Y-94615000D01*
X54405410Y-94604994D01*
X54445803Y-94577803D01*
X55063916Y-93959690D01*
X64597000Y-93959690D01*
X64597000Y-94900250D01*
X64755750Y-95059000D01*
X66205000Y-95059000D01*
X66205000Y-93609750D01*
X66459000Y-93609750D01*
X66459000Y-95059000D01*
X68205000Y-95059000D01*
X68205000Y-93609750D01*
X68459000Y-93609750D01*
X68459000Y-95059000D01*
X70205000Y-95059000D01*
X70205000Y-93609750D01*
X70459000Y-93609750D01*
X70459000Y-95059000D01*
X71908250Y-95059000D01*
X72067000Y-94900250D01*
X72067000Y-93959690D01*
X71970327Y-93726301D01*
X71791698Y-93547673D01*
X71558309Y-93451000D01*
X70617750Y-93451000D01*
X70459000Y-93609750D01*
X70205000Y-93609750D01*
X70046250Y-93451000D01*
X68617750Y-93451000D01*
X68459000Y-93609750D01*
X68205000Y-93609750D01*
X68046250Y-93451000D01*
X66617750Y-93451000D01*
X66459000Y-93609750D01*
X66205000Y-93609750D01*
X66046250Y-93451000D01*
X65105691Y-93451000D01*
X64872302Y-93547673D01*
X64693673Y-93726301D01*
X64597000Y-93959690D01*
X55063916Y-93959690D01*
X55678606Y-93345000D01*
X73787000Y-93345000D01*
X73787000Y-101219000D01*
G36*
X72517000Y-102922606D02*
X72517000Y-105865394D01*
X72083394Y-106299000D01*
X70104000Y-106299000D01*
X70054590Y-106309006D01*
X70014197Y-106336197D01*
X68744197Y-107606197D01*
X68716334Y-107648211D01*
X68707000Y-107696000D01*
X68707000Y-109167394D01*
X68019394Y-109855000D01*
X66357813Y-109855000D01*
X66228390Y-109766569D01*
X65976500Y-109715560D01*
X64833500Y-109715560D01*
X64598183Y-109759838D01*
X64450297Y-109855000D01*
X64060606Y-109855000D01*
X63627000Y-109421394D01*
X63627000Y-106732606D01*
X64060606Y-106299000D01*
X67818000Y-106299000D01*
X67867410Y-106288994D01*
X67907803Y-106261803D01*
X68415803Y-105753803D01*
X68443666Y-105711789D01*
X68453000Y-105664000D01*
X68453000Y-105524236D01*
X68560618Y-105416618D01*
X68753330Y-105128205D01*
X68821000Y-104788000D01*
X68821000Y-104227678D01*
X68829440Y-104186000D01*
X68829440Y-102186000D01*
X68790867Y-101981000D01*
X71575394Y-101981000D01*
X72517000Y-102922606D01*
X72517000Y-102922606D01*
G37*
X72517000Y-102922606D02*
X72517000Y-105865394D01*
X72083394Y-106299000D01*
X70104000Y-106299000D01*
X70054590Y-106309006D01*
X70014197Y-106336197D01*
X68744197Y-107606197D01*
X68716334Y-107648211D01*
X68707000Y-107696000D01*
X68707000Y-109167394D01*
X68019394Y-109855000D01*
X66357813Y-109855000D01*
X66228390Y-109766569D01*
X65976500Y-109715560D01*
X64833500Y-109715560D01*
X64598183Y-109759838D01*
X64450297Y-109855000D01*
X64060606Y-109855000D01*
X63627000Y-109421394D01*
X63627000Y-106732606D01*
X64060606Y-106299000D01*
X67818000Y-106299000D01*
X67867410Y-106288994D01*
X67907803Y-106261803D01*
X68415803Y-105753803D01*
X68443666Y-105711789D01*
X68453000Y-105664000D01*
X68453000Y-105524236D01*
X68560618Y-105416618D01*
X68753330Y-105128205D01*
X68821000Y-104788000D01*
X68821000Y-104227678D01*
X68829440Y-104186000D01*
X68829440Y-102186000D01*
X68790867Y-101981000D01*
X71575394Y-101981000D01*
X72517000Y-102922606D01*
G36*
X67691000Y-105357394D02*
X67511394Y-105537000D01*
X55880000Y-105537000D01*
X55830590Y-105547006D01*
X55790197Y-105574197D01*
X54012197Y-107352197D01*
X53984334Y-107394211D01*
X53975000Y-107442000D01*
X53975000Y-108913394D01*
X53287394Y-109601000D01*
X52117998Y-109601000D01*
X52029206Y-109541671D01*
X51689000Y-109474000D01*
X51051931Y-109474000D01*
X50990500Y-109461560D01*
X49847500Y-109461560D01*
X49781387Y-109474000D01*
X49149000Y-109474000D01*
X48808794Y-109541671D01*
X48720002Y-109601000D01*
X48566606Y-109601000D01*
X47879000Y-108913394D01*
X47879000Y-103634440D01*
X48014000Y-103634440D01*
X48249317Y-103590162D01*
X48465441Y-103451090D01*
X48513134Y-103381289D01*
X48549910Y-103438441D01*
X48762110Y-103583431D01*
X49014000Y-103634440D01*
X50514000Y-103634440D01*
X50749317Y-103590162D01*
X50965441Y-103451090D01*
X51110431Y-103238890D01*
X51161440Y-102987000D01*
X51161440Y-102686296D01*
X51853474Y-101994262D01*
X51885570Y-101981000D01*
X67691000Y-101981000D01*
X67691000Y-105357394D01*
X67691000Y-105357394D01*
G37*
X67691000Y-105357394D02*
X67511394Y-105537000D01*
X55880000Y-105537000D01*
X55830590Y-105547006D01*
X55790197Y-105574197D01*
X54012197Y-107352197D01*
X53984334Y-107394211D01*
X53975000Y-107442000D01*
X53975000Y-108913394D01*
X53287394Y-109601000D01*
X52117998Y-109601000D01*
X52029206Y-109541671D01*
X51689000Y-109474000D01*
X51051931Y-109474000D01*
X50990500Y-109461560D01*
X49847500Y-109461560D01*
X49781387Y-109474000D01*
X49149000Y-109474000D01*
X48808794Y-109541671D01*
X48720002Y-109601000D01*
X48566606Y-109601000D01*
X47879000Y-108913394D01*
X47879000Y-103634440D01*
X48014000Y-103634440D01*
X48249317Y-103590162D01*
X48465441Y-103451090D01*
X48513134Y-103381289D01*
X48549910Y-103438441D01*
X48762110Y-103583431D01*
X49014000Y-103634440D01*
X50514000Y-103634440D01*
X50749317Y-103590162D01*
X50965441Y-103451090D01*
X51110431Y-103238890D01*
X51161440Y-102987000D01*
X51161440Y-102686296D01*
X51853474Y-101994262D01*
X51885570Y-101981000D01*
X67691000Y-101981000D01*
X67691000Y-105357394D01*
G36*
X53975000Y-111050606D02*
X53975000Y-117549394D01*
X52271394Y-119253000D01*
X48566606Y-119253000D01*
X47371000Y-118057394D01*
X47371000Y-111313039D01*
X48558549Y-110363000D01*
X53287394Y-110363000D01*
X53975000Y-111050606D01*
X53975000Y-111050606D01*
G37*
X53975000Y-111050606D02*
X53975000Y-117549394D01*
X52271394Y-119253000D01*
X48566606Y-119253000D01*
X47371000Y-118057394D01*
X47371000Y-111313039D01*
X48558549Y-110363000D01*
X53287394Y-110363000D01*
X53975000Y-111050606D01*
G36*
X68707000Y-111304606D02*
X68707000Y-117549394D01*
X67257394Y-118999000D01*
X63544548Y-118999000D01*
X62357000Y-118048961D01*
X62357000Y-112066606D01*
X63806606Y-110617000D01*
X68019394Y-110617000D01*
X68707000Y-111304606D01*
X68707000Y-111304606D01*
G37*
X68707000Y-111304606D02*
X68707000Y-117549394D01*
X67257394Y-118999000D01*
X63544548Y-118999000D01*
X62357000Y-118048961D01*
X62357000Y-112066606D01*
X63806606Y-110617000D01*
X68019394Y-110617000D01*
X68707000Y-111304606D01*
G36*
X51689000Y-94604106D02*
X51689000Y-98586802D01*
X51494799Y-98506162D01*
X51122833Y-98505838D01*
X51048029Y-98536747D01*
X50978090Y-98428059D01*
X50929017Y-98394529D01*
X50965441Y-98371090D01*
X51110431Y-98158890D01*
X51161440Y-97907000D01*
X51161440Y-96657000D01*
X51117162Y-96421683D01*
X50978090Y-96205559D01*
X50765890Y-96060569D01*
X50514000Y-96009560D01*
X49014000Y-96009560D01*
X48778683Y-96053838D01*
X48562559Y-96192910D01*
X48516031Y-96261006D01*
X48373698Y-96118673D01*
X48140309Y-96022000D01*
X47549750Y-96022000D01*
X47391000Y-96180750D01*
X47391000Y-97155000D01*
X47411000Y-97155000D01*
X47411000Y-97409000D01*
X47391000Y-97409000D01*
X47391000Y-98383250D01*
X47401000Y-98393250D01*
X47391000Y-98403250D01*
X47391000Y-99377500D01*
X47411000Y-99377500D01*
X47411000Y-99631500D01*
X47391000Y-99631500D01*
X47391000Y-100605750D01*
X47549750Y-100764500D01*
X48140309Y-100764500D01*
X48373698Y-100667827D01*
X48514936Y-100526590D01*
X48549910Y-100580941D01*
X48762110Y-100725931D01*
X49014000Y-100776940D01*
X50514000Y-100776940D01*
X50566134Y-100767130D01*
X50243704Y-101089560D01*
X49014000Y-101089560D01*
X48778683Y-101133838D01*
X48646338Y-101219000D01*
X48641000Y-101219000D01*
X48591590Y-101229006D01*
X48551197Y-101256197D01*
X48491210Y-101316185D01*
X48373698Y-101198673D01*
X48140309Y-101102000D01*
X47549750Y-101102000D01*
X47391000Y-101260750D01*
X47391000Y-102235000D01*
X47411000Y-102235000D01*
X47411000Y-102396394D01*
X47298394Y-102509000D01*
X47137000Y-102509000D01*
X47137000Y-102489000D01*
X46037750Y-102489000D01*
X45879000Y-102647750D01*
X45879000Y-103113310D01*
X45975673Y-103346699D01*
X46154302Y-103525327D01*
X46387691Y-103622000D01*
X46978250Y-103622000D01*
X46990000Y-103610250D01*
X46990000Y-109865894D01*
X46519197Y-110336697D01*
X46491334Y-110378711D01*
X46482000Y-110426500D01*
X46482000Y-118364000D01*
X46492006Y-118413410D01*
X46519197Y-118453803D01*
X48170197Y-120104803D01*
X48212211Y-120132666D01*
X48260000Y-120142000D01*
X53350894Y-120142000D01*
X54102000Y-120893106D01*
X54102000Y-126746000D01*
X54112006Y-126795410D01*
X54139197Y-126835803D01*
X55218697Y-127915303D01*
X55260711Y-127943166D01*
X55308500Y-127952500D01*
X61531500Y-127952500D01*
X61580910Y-127942494D01*
X61621303Y-127915303D01*
X62573803Y-126962803D01*
X62601666Y-126920789D01*
X62610992Y-126871573D01*
X62548092Y-121273514D01*
X63425606Y-120396000D01*
X67447894Y-120396000D01*
X68262500Y-121210606D01*
X68262500Y-127635000D01*
X68272506Y-127684410D01*
X68299697Y-127724803D01*
X68998197Y-128423303D01*
X69040211Y-128451166D01*
X69088000Y-128460500D01*
X75258394Y-128460500D01*
X75744000Y-128946106D01*
X75744000Y-141276000D01*
X45160000Y-141276000D01*
X45160000Y-136422815D01*
X45364630Y-136422815D01*
X45688980Y-137207800D01*
X46289041Y-137808909D01*
X47073459Y-138134628D01*
X47922815Y-138135370D01*
X48707800Y-137811020D01*
X49308909Y-137210959D01*
X49634628Y-136426541D01*
X49634631Y-136422815D01*
X70864630Y-136422815D01*
X71188980Y-137207800D01*
X71789041Y-137808909D01*
X72573459Y-138134628D01*
X73422815Y-138135370D01*
X74207800Y-137811020D01*
X74808909Y-137210959D01*
X75134628Y-136426541D01*
X75135370Y-135577185D01*
X74811020Y-134792200D01*
X74210959Y-134191091D01*
X73426541Y-133865372D01*
X72577185Y-133864630D01*
X71792200Y-134188980D01*
X71191091Y-134789041D01*
X70865372Y-135573459D01*
X70864630Y-136422815D01*
X49634631Y-136422815D01*
X49635370Y-135577185D01*
X49311020Y-134792200D01*
X48710959Y-134191091D01*
X47926541Y-133865372D01*
X47077185Y-133864630D01*
X46292200Y-134188980D01*
X45691091Y-134789041D01*
X45365372Y-135573459D01*
X45364630Y-136422815D01*
X45160000Y-136422815D01*
X45160000Y-101610690D01*
X45879000Y-101610690D01*
X45879000Y-102076250D01*
X46037750Y-102235000D01*
X47137000Y-102235000D01*
X47137000Y-101260750D01*
X46978250Y-101102000D01*
X46387691Y-101102000D01*
X46154302Y-101198673D01*
X45975673Y-101377301D01*
X45879000Y-101610690D01*
X45160000Y-101610690D01*
X45160000Y-99790250D01*
X45879000Y-99790250D01*
X45879000Y-100255810D01*
X45975673Y-100489199D01*
X46154302Y-100667827D01*
X46387691Y-100764500D01*
X46978250Y-100764500D01*
X47137000Y-100605750D01*
X47137000Y-99631500D01*
X46037750Y-99631500D01*
X45879000Y-99790250D01*
X45160000Y-99790250D01*
X45160000Y-97567750D01*
X45879000Y-97567750D01*
X45879000Y-98033310D01*
X45975673Y-98266699D01*
X46102225Y-98393250D01*
X45975673Y-98519801D01*
X45879000Y-98753190D01*
X45879000Y-99218750D01*
X46037750Y-99377500D01*
X47137000Y-99377500D01*
X47137000Y-98403250D01*
X47127000Y-98393250D01*
X47137000Y-98383250D01*
X47137000Y-97409000D01*
X46037750Y-97409000D01*
X45879000Y-97567750D01*
X45160000Y-97567750D01*
X45160000Y-96530690D01*
X45879000Y-96530690D01*
X45879000Y-96996250D01*
X46037750Y-97155000D01*
X47137000Y-97155000D01*
X47137000Y-96180750D01*
X46978250Y-96022000D01*
X46387691Y-96022000D01*
X46154302Y-96118673D01*
X45975673Y-96297301D01*
X45879000Y-96530690D01*
X45160000Y-96530690D01*
X45160000Y-94488000D01*
X51572894Y-94488000D01*
X51689000Y-94604106D01*
X51689000Y-94604106D01*
G37*
X51689000Y-94604106D02*
X51689000Y-98586802D01*
X51494799Y-98506162D01*
X51122833Y-98505838D01*
X51048029Y-98536747D01*
X50978090Y-98428059D01*
X50929017Y-98394529D01*
X50965441Y-98371090D01*
X51110431Y-98158890D01*
X51161440Y-97907000D01*
X51161440Y-96657000D01*
X51117162Y-96421683D01*
X50978090Y-96205559D01*
X50765890Y-96060569D01*
X50514000Y-96009560D01*
X49014000Y-96009560D01*
X48778683Y-96053838D01*
X48562559Y-96192910D01*
X48516031Y-96261006D01*
X48373698Y-96118673D01*
X48140309Y-96022000D01*
X47549750Y-96022000D01*
X47391000Y-96180750D01*
X47391000Y-97155000D01*
X47411000Y-97155000D01*
X47411000Y-97409000D01*
X47391000Y-97409000D01*
X47391000Y-98383250D01*
X47401000Y-98393250D01*
X47391000Y-98403250D01*
X47391000Y-99377500D01*
X47411000Y-99377500D01*
X47411000Y-99631500D01*
X47391000Y-99631500D01*
X47391000Y-100605750D01*
X47549750Y-100764500D01*
X48140309Y-100764500D01*
X48373698Y-100667827D01*
X48514936Y-100526590D01*
X48549910Y-100580941D01*
X48762110Y-100725931D01*
X49014000Y-100776940D01*
X50514000Y-100776940D01*
X50566134Y-100767130D01*
X50243704Y-101089560D01*
X49014000Y-101089560D01*
X48778683Y-101133838D01*
X48646338Y-101219000D01*
X48641000Y-101219000D01*
X48591590Y-101229006D01*
X48551197Y-101256197D01*
X48491210Y-101316185D01*
X48373698Y-101198673D01*
X48140309Y-101102000D01*
X47549750Y-101102000D01*
X47391000Y-101260750D01*
X47391000Y-102235000D01*
X47411000Y-102235000D01*
X47411000Y-102396394D01*
X47298394Y-102509000D01*
X47137000Y-102509000D01*
X47137000Y-102489000D01*
X46037750Y-102489000D01*
X45879000Y-102647750D01*
X45879000Y-103113310D01*
X45975673Y-103346699D01*
X46154302Y-103525327D01*
X46387691Y-103622000D01*
X46978250Y-103622000D01*
X46990000Y-103610250D01*
X46990000Y-109865894D01*
X46519197Y-110336697D01*
X46491334Y-110378711D01*
X46482000Y-110426500D01*
X46482000Y-118364000D01*
X46492006Y-118413410D01*
X46519197Y-118453803D01*
X48170197Y-120104803D01*
X48212211Y-120132666D01*
X48260000Y-120142000D01*
X53350894Y-120142000D01*
X54102000Y-120893106D01*
X54102000Y-126746000D01*
X54112006Y-126795410D01*
X54139197Y-126835803D01*
X55218697Y-127915303D01*
X55260711Y-127943166D01*
X55308500Y-127952500D01*
X61531500Y-127952500D01*
X61580910Y-127942494D01*
X61621303Y-127915303D01*
X62573803Y-126962803D01*
X62601666Y-126920789D01*
X62610992Y-126871573D01*
X62548092Y-121273514D01*
X63425606Y-120396000D01*
X67447894Y-120396000D01*
X68262500Y-121210606D01*
X68262500Y-127635000D01*
X68272506Y-127684410D01*
X68299697Y-127724803D01*
X68998197Y-128423303D01*
X69040211Y-128451166D01*
X69088000Y-128460500D01*
X75258394Y-128460500D01*
X75744000Y-128946106D01*
X75744000Y-141276000D01*
X45160000Y-141276000D01*
X45160000Y-136422815D01*
X45364630Y-136422815D01*
X45688980Y-137207800D01*
X46289041Y-137808909D01*
X47073459Y-138134628D01*
X47922815Y-138135370D01*
X48707800Y-137811020D01*
X49308909Y-137210959D01*
X49634628Y-136426541D01*
X49634631Y-136422815D01*
X70864630Y-136422815D01*
X71188980Y-137207800D01*
X71789041Y-137808909D01*
X72573459Y-138134628D01*
X73422815Y-138135370D01*
X74207800Y-137811020D01*
X74808909Y-137210959D01*
X75134628Y-136426541D01*
X75135370Y-135577185D01*
X74811020Y-134792200D01*
X74210959Y-134191091D01*
X73426541Y-133865372D01*
X72577185Y-133864630D01*
X71792200Y-134188980D01*
X71191091Y-134789041D01*
X70865372Y-135573459D01*
X70864630Y-136422815D01*
X49634631Y-136422815D01*
X49635370Y-135577185D01*
X49311020Y-134792200D01*
X48710959Y-134191091D01*
X47926541Y-133865372D01*
X47077185Y-133864630D01*
X46292200Y-134188980D01*
X45691091Y-134789041D01*
X45365372Y-135573459D01*
X45364630Y-136422815D01*
X45160000Y-136422815D01*
X45160000Y-101610690D01*
X45879000Y-101610690D01*
X45879000Y-102076250D01*
X46037750Y-102235000D01*
X47137000Y-102235000D01*
X47137000Y-101260750D01*
X46978250Y-101102000D01*
X46387691Y-101102000D01*
X46154302Y-101198673D01*
X45975673Y-101377301D01*
X45879000Y-101610690D01*
X45160000Y-101610690D01*
X45160000Y-99790250D01*
X45879000Y-99790250D01*
X45879000Y-100255810D01*
X45975673Y-100489199D01*
X46154302Y-100667827D01*
X46387691Y-100764500D01*
X46978250Y-100764500D01*
X47137000Y-100605750D01*
X47137000Y-99631500D01*
X46037750Y-99631500D01*
X45879000Y-99790250D01*
X45160000Y-99790250D01*
X45160000Y-97567750D01*
X45879000Y-97567750D01*
X45879000Y-98033310D01*
X45975673Y-98266699D01*
X46102225Y-98393250D01*
X45975673Y-98519801D01*
X45879000Y-98753190D01*
X45879000Y-99218750D01*
X46037750Y-99377500D01*
X47137000Y-99377500D01*
X47137000Y-98403250D01*
X47127000Y-98393250D01*
X47137000Y-98383250D01*
X47137000Y-97409000D01*
X46037750Y-97409000D01*
X45879000Y-97567750D01*
X45160000Y-97567750D01*
X45160000Y-96530690D01*
X45879000Y-96530690D01*
X45879000Y-96996250D01*
X46037750Y-97155000D01*
X47137000Y-97155000D01*
X47137000Y-96180750D01*
X46978250Y-96022000D01*
X46387691Y-96022000D01*
X46154302Y-96118673D01*
X45975673Y-96297301D01*
X45879000Y-96530690D01*
X45160000Y-96530690D01*
X45160000Y-94488000D01*
X51572894Y-94488000D01*
X51689000Y-94604106D01*
G36*
X75692000Y-84380606D02*
X75692000Y-102997000D01*
X74676000Y-102997000D01*
X74676000Y-93091000D01*
X74665994Y-93041590D01*
X74638803Y-93001197D01*
X74130803Y-92493197D01*
X74088789Y-92465334D01*
X74041920Y-92456003D01*
X71976282Y-92441035D01*
X71978431Y-92437890D01*
X72029440Y-92186000D01*
X72029440Y-90186000D01*
X71985162Y-89950683D01*
X71894000Y-89809013D01*
X71894000Y-89362440D01*
X72779000Y-89362440D01*
X73014317Y-89318162D01*
X73230441Y-89179090D01*
X73276969Y-89110994D01*
X73419302Y-89253327D01*
X73652691Y-89350000D01*
X74093250Y-89350000D01*
X74252000Y-89191250D01*
X74252000Y-88392000D01*
X74506000Y-88392000D01*
X74506000Y-89191250D01*
X74664750Y-89350000D01*
X75105309Y-89350000D01*
X75338698Y-89253327D01*
X75517327Y-89074699D01*
X75614000Y-88841310D01*
X75614000Y-88550750D01*
X75455250Y-88392000D01*
X74506000Y-88392000D01*
X74252000Y-88392000D01*
X74232000Y-88392000D01*
X74232000Y-88138000D01*
X74252000Y-88138000D01*
X74252000Y-87338750D01*
X74506000Y-87338750D01*
X74506000Y-88138000D01*
X75455250Y-88138000D01*
X75614000Y-87979250D01*
X75614000Y-87688690D01*
X75517327Y-87455301D01*
X75338698Y-87276673D01*
X75105309Y-87180000D01*
X74664750Y-87180000D01*
X74506000Y-87338750D01*
X74252000Y-87338750D01*
X74093250Y-87180000D01*
X73652691Y-87180000D01*
X73419302Y-87276673D01*
X73278064Y-87417910D01*
X73243090Y-87363559D01*
X73030890Y-87218569D01*
X72779000Y-87167560D01*
X71892000Y-87167560D01*
X71892000Y-86626000D01*
X71834148Y-86335161D01*
X71669401Y-86088599D01*
X70280401Y-84699599D01*
X70033839Y-84534852D01*
X69743000Y-84477000D01*
X64135558Y-84477000D01*
X64093162Y-84251683D01*
X63954090Y-84035559D01*
X63741890Y-83890569D01*
X63490000Y-83839560D01*
X62240000Y-83839560D01*
X62004683Y-83883838D01*
X61788559Y-84022910D01*
X61643569Y-84235110D01*
X61594585Y-84477000D01*
X61194000Y-84477000D01*
X60903160Y-84534852D01*
X60656599Y-84699599D01*
X59473525Y-85882673D01*
X59271330Y-85744519D01*
X59019440Y-85693510D01*
X57718960Y-85693510D01*
X57656000Y-85705357D01*
X57656000Y-85235740D01*
X57718960Y-85248490D01*
X59019440Y-85248490D01*
X59254757Y-85204212D01*
X59470881Y-85065140D01*
X59615871Y-84852940D01*
X59666880Y-84601050D01*
X59666880Y-83800950D01*
X59622602Y-83565633D01*
X59589377Y-83514000D01*
X74825394Y-83514000D01*
X75692000Y-84380606D01*
X75692000Y-84380606D01*
G37*
X75692000Y-84380606D02*
X75692000Y-102997000D01*
X74676000Y-102997000D01*
X74676000Y-93091000D01*
X74665994Y-93041590D01*
X74638803Y-93001197D01*
X74130803Y-92493197D01*
X74088789Y-92465334D01*
X74041920Y-92456003D01*
X71976282Y-92441035D01*
X71978431Y-92437890D01*
X72029440Y-92186000D01*
X72029440Y-90186000D01*
X71985162Y-89950683D01*
X71894000Y-89809013D01*
X71894000Y-89362440D01*
X72779000Y-89362440D01*
X73014317Y-89318162D01*
X73230441Y-89179090D01*
X73276969Y-89110994D01*
X73419302Y-89253327D01*
X73652691Y-89350000D01*
X74093250Y-89350000D01*
X74252000Y-89191250D01*
X74252000Y-88392000D01*
X74506000Y-88392000D01*
X74506000Y-89191250D01*
X74664750Y-89350000D01*
X75105309Y-89350000D01*
X75338698Y-89253327D01*
X75517327Y-89074699D01*
X75614000Y-88841310D01*
X75614000Y-88550750D01*
X75455250Y-88392000D01*
X74506000Y-88392000D01*
X74252000Y-88392000D01*
X74232000Y-88392000D01*
X74232000Y-88138000D01*
X74252000Y-88138000D01*
X74252000Y-87338750D01*
X74506000Y-87338750D01*
X74506000Y-88138000D01*
X75455250Y-88138000D01*
X75614000Y-87979250D01*
X75614000Y-87688690D01*
X75517327Y-87455301D01*
X75338698Y-87276673D01*
X75105309Y-87180000D01*
X74664750Y-87180000D01*
X74506000Y-87338750D01*
X74252000Y-87338750D01*
X74093250Y-87180000D01*
X73652691Y-87180000D01*
X73419302Y-87276673D01*
X73278064Y-87417910D01*
X73243090Y-87363559D01*
X73030890Y-87218569D01*
X72779000Y-87167560D01*
X71892000Y-87167560D01*
X71892000Y-86626000D01*
X71834148Y-86335161D01*
X71669401Y-86088599D01*
X70280401Y-84699599D01*
X70033839Y-84534852D01*
X69743000Y-84477000D01*
X64135558Y-84477000D01*
X64093162Y-84251683D01*
X63954090Y-84035559D01*
X63741890Y-83890569D01*
X63490000Y-83839560D01*
X62240000Y-83839560D01*
X62004683Y-83883838D01*
X61788559Y-84022910D01*
X61643569Y-84235110D01*
X61594585Y-84477000D01*
X61194000Y-84477000D01*
X60903160Y-84534852D01*
X60656599Y-84699599D01*
X59473525Y-85882673D01*
X59271330Y-85744519D01*
X59019440Y-85693510D01*
X57718960Y-85693510D01*
X57656000Y-85705357D01*
X57656000Y-85235740D01*
X57718960Y-85248490D01*
X59019440Y-85248490D01*
X59254757Y-85204212D01*
X59470881Y-85065140D01*
X59615871Y-84852940D01*
X59666880Y-84601050D01*
X59666880Y-83800950D01*
X59622602Y-83565633D01*
X59589377Y-83514000D01*
X74825394Y-83514000D01*
X75692000Y-84380606D01*
G36*
X70372000Y-86940802D02*
X70372000Y-88028622D01*
X70045833Y-88028338D01*
X69702057Y-88170383D01*
X69500384Y-88371704D01*
X69500117Y-88371057D01*
X69237327Y-88107808D01*
X69153165Y-88072861D01*
X69167327Y-88058699D01*
X69264000Y-87825310D01*
X69264000Y-87534750D01*
X69105250Y-87376000D01*
X68156000Y-87376000D01*
X68156000Y-87396000D01*
X67902000Y-87396000D01*
X67902000Y-87376000D01*
X67882000Y-87376000D01*
X67882000Y-87122000D01*
X67902000Y-87122000D01*
X67902000Y-86322750D01*
X68156000Y-86322750D01*
X68156000Y-87122000D01*
X69105250Y-87122000D01*
X69264000Y-86963250D01*
X69264000Y-86672690D01*
X69167327Y-86439301D01*
X68988698Y-86260673D01*
X68755309Y-86164000D01*
X68314750Y-86164000D01*
X68156000Y-86322750D01*
X67902000Y-86322750D01*
X67743250Y-86164000D01*
X67302691Y-86164000D01*
X67069302Y-86260673D01*
X66928064Y-86401910D01*
X66893090Y-86347559D01*
X66680890Y-86202569D01*
X66429000Y-86151560D01*
X65229000Y-86151560D01*
X64993683Y-86195838D01*
X64777559Y-86334910D01*
X64632569Y-86547110D01*
X64581560Y-86799000D01*
X64581560Y-87699000D01*
X64625838Y-87934317D01*
X64756904Y-88138000D01*
X64262000Y-88138000D01*
X64137440Y-88162777D01*
X64137440Y-86987000D01*
X64093162Y-86751683D01*
X63954090Y-86535559D01*
X63884289Y-86487866D01*
X63941441Y-86451090D01*
X64086431Y-86238890D01*
X64135415Y-85997000D01*
X69428198Y-85997000D01*
X70372000Y-86940802D01*
X70372000Y-86940802D01*
G37*
X70372000Y-86940802D02*
X70372000Y-88028622D01*
X70045833Y-88028338D01*
X69702057Y-88170383D01*
X69500384Y-88371704D01*
X69500117Y-88371057D01*
X69237327Y-88107808D01*
X69153165Y-88072861D01*
X69167327Y-88058699D01*
X69264000Y-87825310D01*
X69264000Y-87534750D01*
X69105250Y-87376000D01*
X68156000Y-87376000D01*
X68156000Y-87396000D01*
X67902000Y-87396000D01*
X67902000Y-87376000D01*
X67882000Y-87376000D01*
X67882000Y-87122000D01*
X67902000Y-87122000D01*
X67902000Y-86322750D01*
X68156000Y-86322750D01*
X68156000Y-87122000D01*
X69105250Y-87122000D01*
X69264000Y-86963250D01*
X69264000Y-86672690D01*
X69167327Y-86439301D01*
X68988698Y-86260673D01*
X68755309Y-86164000D01*
X68314750Y-86164000D01*
X68156000Y-86322750D01*
X67902000Y-86322750D01*
X67743250Y-86164000D01*
X67302691Y-86164000D01*
X67069302Y-86260673D01*
X66928064Y-86401910D01*
X66893090Y-86347559D01*
X66680890Y-86202569D01*
X66429000Y-86151560D01*
X65229000Y-86151560D01*
X64993683Y-86195838D01*
X64777559Y-86334910D01*
X64632569Y-86547110D01*
X64581560Y-86799000D01*
X64581560Y-87699000D01*
X64625838Y-87934317D01*
X64756904Y-88138000D01*
X64262000Y-88138000D01*
X64137440Y-88162777D01*
X64137440Y-86987000D01*
X64093162Y-86751683D01*
X63954090Y-86535559D01*
X63884289Y-86487866D01*
X63941441Y-86451090D01*
X64086431Y-86238890D01*
X64135415Y-85997000D01*
X69428198Y-85997000D01*
X70372000Y-86940802D01*
M02*
