M48
;DRILL file {KiCad 0.201511171411+6319~30~ubuntu15.10.1-product} date Fr 04 Dez 2015 10:58:32 CET
;FORMAT={3:3/ absolute / metric / suppress leading zeros}
FMAT,2
METRIC,TZ
T1C0.400
T2C0.500
T3C1.016
T4C1.200
T5C2.000
T6C3.000
%
G90
G05
M71
T1
X45593Y-99441
X47117Y-129921
X47117Y-130937
X47752Y-112776
X47752Y-113792
X47752Y-114808
X47752Y-115824
X47752Y-116840
X47752Y-117856
X48133Y-129921
X48133Y-130937
X49022Y-106680
X49149Y-129921
X49149Y-130937
X50038Y-106680
X50165Y-129921
X50165Y-130937
X51054Y-106680
X51308Y-99441
X51435Y-101156
X51816Y-112395
X52070Y-106680
X52070Y-107823
X52070Y-108712
X52578Y-113030
X52832Y-117729
X53086Y-107696
X53086Y-108712
X53086Y-113665
X53086Y-114681
X53086Y-115697
X53086Y-116713
X55372Y-113983
X58230Y-121412
X59436Y-88392
X59436Y-103124
X59436Y-104140
X60452Y-103124
X60452Y-104140
X61214Y-94234
X61214Y-100076
X61468Y-103124
X61468Y-104140
X61976Y-94234
X61976Y-100076
X62484Y-103124
X62484Y-104140
X62738Y-94234
X62738Y-94996
X62738Y-95758
X62738Y-98552
X62738Y-99314
X62738Y-100076
X62738Y-112776
X62738Y-113792
X62738Y-114808
X62738Y-115824
X62738Y-116840
X62738Y-117856
X63500Y-103124
X63500Y-104140
X64262Y-107188
X64262Y-108204
X64516Y-103124
X64516Y-104140
X65278Y-107188
X66294Y-107188
X66675Y-109347
X66675Y-112522
X66739Y-88709
X66802Y-108204
X67564Y-113030
X67628Y-88773
X67691Y-117983
X67818Y-108204
X67818Y-109220
X68072Y-113919
X68072Y-114935
X68072Y-115951
X68072Y-116967
X68707Y-88900
X69469Y-129286
X69469Y-130302
X69532Y-104902
X70104Y-106172
X70231Y-88964
X70358Y-114046
X70485Y-104902
X70485Y-129286
X70485Y-130302
X71120Y-106172
X71501Y-129286
X71501Y-130302
X71882Y-103378
X71882Y-104394
X71882Y-105410
X71882Y-121730
X72517Y-129286
X72517Y-130302
X73089Y-121285
X74740Y-90488
X74740Y-121222
T2
X66332Y-95186
X66332Y-97186
X66332Y-99186
X68332Y-95186
X68332Y-97186
X68332Y-99186
X70332Y-95186
X70332Y-97186
X70332Y-99186
T3
X47244Y-86868
X47244Y-89408
X47244Y-91948
X55626Y-123444
X55626Y-125984
X58166Y-123444
X58166Y-125984
X60706Y-123444
X60706Y-125984
X69850Y-124206
X69850Y-126746
X72390Y-124206
X72390Y-126746
X74930Y-124206
X74930Y-126746
T4
X52578Y-132842
X52578Y-138938
X55182Y-96837
X57658Y-132842
X57658Y-138938
X60262Y-96837
X62738Y-132842
X62738Y-138938
X67818Y-132842
X67818Y-138938
T6
X47500Y-136000
X73000Y-136000
T5
X50292Y-117048G85X50292Y-114548
G05
X50292Y-124948G85X50292Y-122448
G05
X65278Y-117048G85X65278Y-114548
G05
X65278Y-124948G85X65278Y-122448
G05
T0
M30
