%TF.GenerationSoftware,KiCad,Pcbnew,0.201511171411+6319~30~ubuntu15.10.1-product*%
%TF.CreationDate,2015-12-04T10:58:07+01:00*%
%TF.ProjectId,ESC-Base,4553432D426173652E6B696361645F70,rev?*%
%TF.FileFunction,Legend,Top*%
%FSLAX46Y46*%
G04 Gerber Fmt 4.6, Leading zero omitted, Abs format (unit mm)*
G04 Created by KiCad (PCBNEW 0.201511171411+6319~30~ubuntu15.10.1-product) date Fr 04 Dez 2015 10:58:07 CET*
%MOMM*%
G01*
G04 APERTURE LIST*
%ADD10C,0.100000*%
%ADD11C,0.200000*%
%ADD12C,0.150000*%
%ADD13C,0.099060*%
%ADD14C,0.152400*%
G04 APERTURE END LIST*
D10*
D11*
X54356000Y-122936000D02*
X54356000Y-112522000D01*
X54356000Y-126746000D02*
X54356000Y-122936000D01*
X76200000Y-128016000D02*
X76200000Y-127762000D01*
X70358000Y-128016000D02*
X76200000Y-128016000D01*
X69088000Y-126746000D02*
X70358000Y-128016000D01*
X69088000Y-112776000D02*
X69088000Y-126746000D01*
X70358000Y-106680000D02*
X76200000Y-106680000D01*
X69850000Y-107188000D02*
X70358000Y-106680000D01*
X55880000Y-106426000D02*
X55372000Y-106934000D01*
X60452000Y-106426000D02*
X55880000Y-106426000D01*
X62230000Y-108204000D02*
X60452000Y-106426000D01*
X62230000Y-126746000D02*
X62230000Y-108204000D01*
X61214000Y-127762000D02*
X62230000Y-126746000D01*
X55372000Y-127762000D02*
X60960000Y-127762000D01*
X54356000Y-126746000D02*
X55372000Y-127762000D01*
X54356000Y-94234000D02*
X44704000Y-94234000D01*
X55372000Y-93218000D02*
X55372000Y-85090000D01*
X54356000Y-94234000D02*
X55372000Y-93218000D01*
D12*
X75819000Y-127889000D02*
X68961000Y-127889000D01*
X68961000Y-127889000D02*
X68834000Y-127889000D01*
X68834000Y-127889000D02*
X68834000Y-123063000D01*
X68834000Y-123063000D02*
X75946000Y-123063000D01*
X75946000Y-123063000D02*
X75946000Y-125349000D01*
X61722000Y-127254000D02*
X54610000Y-127254000D01*
X54610000Y-127254000D02*
X54610000Y-122301000D01*
X54610000Y-122301000D02*
X61722000Y-122301000D01*
X61722000Y-122301000D02*
X61722000Y-124714000D01*
X48014000Y-100354500D02*
X49014000Y-100354500D01*
X49014000Y-98654500D02*
X48014000Y-98654500D01*
X48014000Y-98132000D02*
X49014000Y-98132000D01*
X49014000Y-96432000D02*
X48014000Y-96432000D01*
X48014000Y-103212000D02*
X49014000Y-103212000D01*
X49014000Y-101512000D02*
X48014000Y-101512000D01*
X61873500Y-90162000D02*
X61873500Y-89162000D01*
X60173500Y-89162000D02*
X60173500Y-90162000D01*
X60110000Y-109291500D02*
X60110000Y-110291500D01*
X61810000Y-110291500D02*
X61810000Y-109291500D01*
X72080500Y-116102500D02*
X73080500Y-116102500D01*
X73080500Y-114402500D02*
X72080500Y-114402500D01*
X57951000Y-111069500D02*
X57951000Y-112069500D01*
X59651000Y-112069500D02*
X59651000Y-111069500D01*
X73064000Y-111387000D02*
X73064000Y-112387000D01*
X74764000Y-112387000D02*
X74764000Y-111387000D01*
X45694000Y-91948000D02*
X45694000Y-93498000D01*
X45694000Y-93498000D02*
X48794000Y-93498000D01*
X48794000Y-93498000D02*
X48794000Y-91948000D01*
X45974000Y-90678000D02*
X45974000Y-85598000D01*
X45974000Y-85598000D02*
X48514000Y-85598000D01*
X48514000Y-85598000D02*
X48514000Y-90678000D01*
X48514000Y-90678000D02*
X45974000Y-90678000D01*
X50395500Y-86939500D02*
X50395500Y-87939500D01*
X49045500Y-87939500D02*
X49045500Y-86939500D01*
X66429000Y-86574000D02*
X67429000Y-86574000D01*
X67429000Y-87924000D02*
X66429000Y-87924000D01*
X57698000Y-118499000D02*
X57698000Y-119499000D01*
X56348000Y-119499000D02*
X56348000Y-118499000D01*
X72557000Y-118816500D02*
X72557000Y-119816500D01*
X71207000Y-119816500D02*
X71207000Y-118816500D01*
X63119000Y-100965000D02*
X65278000Y-100965000D01*
X65278000Y-100965000D02*
X65278000Y-102108000D01*
X65278000Y-102108000D02*
X71374000Y-102108000D01*
X71374000Y-102108000D02*
X71374000Y-100965000D01*
X71374000Y-100965000D02*
X73533000Y-100965000D01*
X65278000Y-92329000D02*
X65278000Y-93345000D01*
X65278000Y-93345000D02*
X63119000Y-93345000D01*
X65278000Y-92329000D02*
X71374000Y-92329000D01*
X71374000Y-92329000D02*
X71374000Y-93345000D01*
X71374000Y-93345000D02*
X73533000Y-93345000D01*
X55880000Y-107188000D02*
X55880000Y-112268000D01*
X55880000Y-112268000D02*
X51308000Y-112268000D01*
X51308000Y-112268000D02*
X51308000Y-107188000D01*
X51308000Y-107188000D02*
X55880000Y-107188000D01*
X54356000Y-107188000D02*
X54356000Y-107696000D01*
X54356000Y-107696000D02*
X53086000Y-107696000D01*
X53086000Y-107696000D02*
X53086000Y-107188000D01*
X70866000Y-107442000D02*
X70866000Y-112522000D01*
X70866000Y-112522000D02*
X66294000Y-112522000D01*
X66294000Y-112522000D02*
X66294000Y-107442000D01*
X66294000Y-107442000D02*
X70866000Y-107442000D01*
X69342000Y-107442000D02*
X69342000Y-107950000D01*
X69342000Y-107950000D02*
X68072000Y-107950000D01*
X68072000Y-107950000D02*
X68072000Y-107442000D01*
D13*
X53213000Y-87630000D02*
X53213000Y-91694000D01*
X57023000Y-87630000D02*
X57023000Y-91694000D01*
X57023000Y-91694000D02*
X53213000Y-91694000D01*
X53340000Y-87630000D02*
X53213000Y-87630000D01*
X57023000Y-87630000D02*
X53340000Y-87630000D01*
X55626000Y-87630000D02*
X55626000Y-88138000D01*
X55626000Y-88138000D02*
X54610000Y-88138000D01*
X54610000Y-88138000D02*
X54610000Y-87630000D01*
D12*
X62015000Y-85987000D02*
X62015000Y-86987000D01*
X63715000Y-86987000D02*
X63715000Y-85987000D01*
X48141000Y-83653000D02*
X49141000Y-83653000D01*
X49141000Y-85003000D02*
X48141000Y-85003000D01*
X72779000Y-87590000D02*
X73779000Y-87590000D01*
X73779000Y-88940000D02*
X72779000Y-88940000D01*
D13*
X53213000Y-83439000D02*
X53213000Y-87503000D01*
X57023000Y-83439000D02*
X57023000Y-87503000D01*
X57023000Y-87503000D02*
X53213000Y-87503000D01*
X53340000Y-83439000D02*
X53213000Y-83439000D01*
X57023000Y-83439000D02*
X53340000Y-83439000D01*
X55626000Y-83439000D02*
X55626000Y-83947000D01*
X55626000Y-83947000D02*
X54610000Y-83947000D01*
X54610000Y-83947000D02*
X54610000Y-83439000D01*
D12*
X65730381Y-120626095D02*
X64730381Y-120626095D01*
X64730381Y-120245142D01*
X64778000Y-120149904D01*
X64825619Y-120102285D01*
X64920857Y-120054666D01*
X65063714Y-120054666D01*
X65158952Y-120102285D01*
X65206571Y-120149904D01*
X65254190Y-120245142D01*
X65254190Y-120626095D01*
X64730381Y-119149904D02*
X64730381Y-119626095D01*
X65206571Y-119673714D01*
X65158952Y-119626095D01*
X65111333Y-119530857D01*
X65111333Y-119292761D01*
X65158952Y-119197523D01*
X65206571Y-119149904D01*
X65301810Y-119102285D01*
X65539905Y-119102285D01*
X65635143Y-119149904D01*
X65682762Y-119197523D01*
X65730381Y-119292761D01*
X65730381Y-119530857D01*
X65682762Y-119626095D01*
X65635143Y-119673714D01*
X50744381Y-120626095D02*
X49744381Y-120626095D01*
X49744381Y-120245142D01*
X49792000Y-120149904D01*
X49839619Y-120102285D01*
X49934857Y-120054666D01*
X50077714Y-120054666D01*
X50172952Y-120102285D01*
X50220571Y-120149904D01*
X50268190Y-120245142D01*
X50268190Y-120626095D01*
X50077714Y-119197523D02*
X50744381Y-119197523D01*
X49696762Y-119435619D02*
X50411048Y-119673714D01*
X50411048Y-119054666D01*
X56729405Y-100083881D02*
X56729405Y-99083881D01*
X57110358Y-99083881D01*
X57205596Y-99131500D01*
X57253215Y-99179119D01*
X57300834Y-99274357D01*
X57300834Y-99417214D01*
X57253215Y-99512452D01*
X57205596Y-99560071D01*
X57110358Y-99607690D01*
X56729405Y-99607690D01*
X57872262Y-99512452D02*
X57777024Y-99464833D01*
X57729405Y-99417214D01*
X57681786Y-99321976D01*
X57681786Y-99274357D01*
X57729405Y-99179119D01*
X57777024Y-99131500D01*
X57872262Y-99083881D01*
X58062739Y-99083881D01*
X58157977Y-99131500D01*
X58205596Y-99179119D01*
X58253215Y-99274357D01*
X58253215Y-99321976D01*
X58205596Y-99417214D01*
X58157977Y-99464833D01*
X58062739Y-99512452D01*
X57872262Y-99512452D01*
X57777024Y-99560071D01*
X57729405Y-99607690D01*
X57681786Y-99702929D01*
X57681786Y-99893405D01*
X57729405Y-99988643D01*
X57777024Y-100036262D01*
X57872262Y-100083881D01*
X58062739Y-100083881D01*
X58157977Y-100036262D01*
X58205596Y-99988643D01*
X58253215Y-99893405D01*
X58253215Y-99702929D01*
X58205596Y-99607690D01*
X58157977Y-99560071D01*
X58062739Y-99512452D01*
X71318381Y-139803095D02*
X70318381Y-139803095D01*
X70318381Y-139422142D01*
X70366000Y-139326904D01*
X70413619Y-139279285D01*
X70508857Y-139231666D01*
X70651714Y-139231666D01*
X70746952Y-139279285D01*
X70794571Y-139326904D01*
X70842190Y-139422142D01*
X70842190Y-139803095D01*
X70318381Y-138898333D02*
X70318381Y-138231666D01*
X71318381Y-138660238D01*
X71318381Y-133580095D02*
X70318381Y-133580095D01*
X70318381Y-133199142D01*
X70366000Y-133103904D01*
X70413619Y-133056285D01*
X70508857Y-133008666D01*
X70651714Y-133008666D01*
X70746952Y-133056285D01*
X70794571Y-133103904D01*
X70842190Y-133199142D01*
X70842190Y-133580095D01*
X70318381Y-132151523D02*
X70318381Y-132342000D01*
X70366000Y-132437238D01*
X70413619Y-132484857D01*
X70556476Y-132580095D01*
X70746952Y-132627714D01*
X71127905Y-132627714D01*
X71223143Y-132580095D01*
X71270762Y-132532476D01*
X71318381Y-132437238D01*
X71318381Y-132246761D01*
X71270762Y-132151523D01*
X71223143Y-132103904D01*
X71127905Y-132056285D01*
X70889810Y-132056285D01*
X70794571Y-132103904D01*
X70746952Y-132151523D01*
X70699333Y-132246761D01*
X70699333Y-132437238D01*
X70746952Y-132532476D01*
X70794571Y-132580095D01*
X70889810Y-132627714D01*
X46166667Y-132451881D02*
X45833333Y-131975690D01*
X45595238Y-132451881D02*
X45595238Y-131451881D01*
X45976191Y-131451881D01*
X46071429Y-131499500D01*
X46119048Y-131547119D01*
X46166667Y-131642357D01*
X46166667Y-131785214D01*
X46119048Y-131880452D01*
X46071429Y-131928071D01*
X45976191Y-131975690D01*
X45595238Y-131975690D01*
X46595238Y-131928071D02*
X46928572Y-131928071D01*
X47071429Y-132451881D02*
X46595238Y-132451881D01*
X46595238Y-131451881D01*
X47071429Y-131451881D01*
X47833334Y-131928071D02*
X47500000Y-131928071D01*
X47500000Y-132451881D02*
X47500000Y-131451881D01*
X47976191Y-131451881D01*
X48500000Y-131451881D02*
X48500000Y-131689976D01*
X48261905Y-131594738D02*
X48500000Y-131689976D01*
X48738096Y-131594738D01*
X48357143Y-131880452D02*
X48500000Y-131689976D01*
X48642858Y-131880452D01*
X49261905Y-131451881D02*
X49261905Y-131689976D01*
X49023810Y-131594738D02*
X49261905Y-131689976D01*
X49500001Y-131594738D01*
X49119048Y-131880452D02*
X49261905Y-131689976D01*
X49404763Y-131880452D01*
X74572905Y-122880381D02*
X74572905Y-121880381D01*
X74953858Y-121880381D01*
X75049096Y-121928000D01*
X75096715Y-121975619D01*
X75144334Y-122070857D01*
X75144334Y-122213714D01*
X75096715Y-122308952D01*
X75049096Y-122356571D01*
X74953858Y-122404190D01*
X74572905Y-122404190D01*
X75477667Y-121880381D02*
X76096715Y-121880381D01*
X75763381Y-122261333D01*
X75906239Y-122261333D01*
X76001477Y-122308952D01*
X76049096Y-122356571D01*
X76096715Y-122451810D01*
X76096715Y-122689905D01*
X76049096Y-122785143D01*
X76001477Y-122832762D01*
X75906239Y-122880381D01*
X75620524Y-122880381D01*
X75525286Y-122832762D01*
X75477667Y-122785143D01*
X59967905Y-121991381D02*
X59967905Y-120991381D01*
X60348858Y-120991381D01*
X60444096Y-121039000D01*
X60491715Y-121086619D01*
X60539334Y-121181857D01*
X60539334Y-121324714D01*
X60491715Y-121419952D01*
X60444096Y-121467571D01*
X60348858Y-121515190D01*
X59967905Y-121515190D01*
X60920286Y-121086619D02*
X60967905Y-121039000D01*
X61063143Y-120991381D01*
X61301239Y-120991381D01*
X61396477Y-121039000D01*
X61444096Y-121086619D01*
X61491715Y-121181857D01*
X61491715Y-121277095D01*
X61444096Y-121419952D01*
X60872667Y-121991381D01*
X61491715Y-121991381D01*
X48347334Y-101961643D02*
X48299715Y-102009262D01*
X48156858Y-102056881D01*
X48061620Y-102056881D01*
X47918762Y-102009262D01*
X47823524Y-101914024D01*
X47775905Y-101818786D01*
X47728286Y-101628310D01*
X47728286Y-101485452D01*
X47775905Y-101294976D01*
X47823524Y-101199738D01*
X47918762Y-101104500D01*
X48061620Y-101056881D01*
X48156858Y-101056881D01*
X48299715Y-101104500D01*
X48347334Y-101152119D01*
X49299715Y-102056881D02*
X48728286Y-102056881D01*
X49014000Y-102056881D02*
X49014000Y-101056881D01*
X48918762Y-101199738D01*
X48823524Y-101294976D01*
X48728286Y-101342595D01*
X48347334Y-99739143D02*
X48299715Y-99786762D01*
X48156858Y-99834381D01*
X48061620Y-99834381D01*
X47918762Y-99786762D01*
X47823524Y-99691524D01*
X47775905Y-99596286D01*
X47728286Y-99405810D01*
X47728286Y-99262952D01*
X47775905Y-99072476D01*
X47823524Y-98977238D01*
X47918762Y-98882000D01*
X48061620Y-98834381D01*
X48156858Y-98834381D01*
X48299715Y-98882000D01*
X48347334Y-98929619D01*
X48728286Y-98929619D02*
X48775905Y-98882000D01*
X48871143Y-98834381D01*
X49109239Y-98834381D01*
X49204477Y-98882000D01*
X49252096Y-98929619D01*
X49299715Y-99024857D01*
X49299715Y-99120095D01*
X49252096Y-99262952D01*
X48680667Y-99834381D01*
X49299715Y-99834381D01*
X48347334Y-104819143D02*
X48299715Y-104866762D01*
X48156858Y-104914381D01*
X48061620Y-104914381D01*
X47918762Y-104866762D01*
X47823524Y-104771524D01*
X47775905Y-104676286D01*
X47728286Y-104485810D01*
X47728286Y-104342952D01*
X47775905Y-104152476D01*
X47823524Y-104057238D01*
X47918762Y-103962000D01*
X48061620Y-103914381D01*
X48156858Y-103914381D01*
X48299715Y-103962000D01*
X48347334Y-104009619D01*
X48680667Y-103914381D02*
X49299715Y-103914381D01*
X48966381Y-104295333D01*
X49109239Y-104295333D01*
X49204477Y-104342952D01*
X49252096Y-104390571D01*
X49299715Y-104485810D01*
X49299715Y-104723905D01*
X49252096Y-104819143D01*
X49204477Y-104866762D01*
X49109239Y-104914381D01*
X48823524Y-104914381D01*
X48728286Y-104866762D01*
X48680667Y-104819143D01*
X63480643Y-89828666D02*
X63528262Y-89876285D01*
X63575881Y-90019142D01*
X63575881Y-90114380D01*
X63528262Y-90257238D01*
X63433024Y-90352476D01*
X63337786Y-90400095D01*
X63147310Y-90447714D01*
X63004452Y-90447714D01*
X62813976Y-90400095D01*
X62718738Y-90352476D01*
X62623500Y-90257238D01*
X62575881Y-90114380D01*
X62575881Y-90019142D01*
X62623500Y-89876285D01*
X62671119Y-89828666D01*
X62575881Y-88923904D02*
X62575881Y-89400095D01*
X63052071Y-89447714D01*
X63004452Y-89400095D01*
X62956833Y-89304857D01*
X62956833Y-89066761D01*
X63004452Y-88971523D01*
X63052071Y-88923904D01*
X63147310Y-88876285D01*
X63385405Y-88876285D01*
X63480643Y-88923904D01*
X63528262Y-88971523D01*
X63575881Y-89066761D01*
X63575881Y-89304857D01*
X63528262Y-89400095D01*
X63480643Y-89447714D01*
X58380334Y-109323143D02*
X58332715Y-109370762D01*
X58189858Y-109418381D01*
X58094620Y-109418381D01*
X57951762Y-109370762D01*
X57856524Y-109275524D01*
X57808905Y-109180286D01*
X57761286Y-108989810D01*
X57761286Y-108846952D01*
X57808905Y-108656476D01*
X57856524Y-108561238D01*
X57951762Y-108466000D01*
X58094620Y-108418381D01*
X58189858Y-108418381D01*
X58332715Y-108466000D01*
X58380334Y-108513619D01*
X59237477Y-108418381D02*
X59047000Y-108418381D01*
X58951762Y-108466000D01*
X58904143Y-108513619D01*
X58808905Y-108656476D01*
X58761286Y-108846952D01*
X58761286Y-109227905D01*
X58808905Y-109323143D01*
X58856524Y-109370762D01*
X58951762Y-109418381D01*
X59142239Y-109418381D01*
X59237477Y-109370762D01*
X59285096Y-109323143D01*
X59332715Y-109227905D01*
X59332715Y-108989810D01*
X59285096Y-108894571D01*
X59237477Y-108846952D01*
X59142239Y-108799333D01*
X58951762Y-108799333D01*
X58856524Y-108846952D01*
X58808905Y-108894571D01*
X58761286Y-108989810D01*
X72350334Y-117197143D02*
X72302715Y-117244762D01*
X72159858Y-117292381D01*
X72064620Y-117292381D01*
X71921762Y-117244762D01*
X71826524Y-117149524D01*
X71778905Y-117054286D01*
X71731286Y-116863810D01*
X71731286Y-116720952D01*
X71778905Y-116530476D01*
X71826524Y-116435238D01*
X71921762Y-116340000D01*
X72064620Y-116292381D01*
X72159858Y-116292381D01*
X72302715Y-116340000D01*
X72350334Y-116387619D01*
X72683667Y-116292381D02*
X73350334Y-116292381D01*
X72921762Y-117292381D01*
X61063143Y-113196666D02*
X61110762Y-113244285D01*
X61158381Y-113387142D01*
X61158381Y-113482380D01*
X61110762Y-113625238D01*
X61015524Y-113720476D01*
X60920286Y-113768095D01*
X60729810Y-113815714D01*
X60586952Y-113815714D01*
X60396476Y-113768095D01*
X60301238Y-113720476D01*
X60206000Y-113625238D01*
X60158381Y-113482380D01*
X60158381Y-113387142D01*
X60206000Y-113244285D01*
X60253619Y-113196666D01*
X60586952Y-112625238D02*
X60539333Y-112720476D01*
X60491714Y-112768095D01*
X60396476Y-112815714D01*
X60348857Y-112815714D01*
X60253619Y-112768095D01*
X60206000Y-112720476D01*
X60158381Y-112625238D01*
X60158381Y-112434761D01*
X60206000Y-112339523D01*
X60253619Y-112291904D01*
X60348857Y-112244285D01*
X60396476Y-112244285D01*
X60491714Y-112291904D01*
X60539333Y-112339523D01*
X60586952Y-112434761D01*
X60586952Y-112625238D01*
X60634571Y-112720476D01*
X60682190Y-112768095D01*
X60777429Y-112815714D01*
X60967905Y-112815714D01*
X61063143Y-112768095D01*
X61110762Y-112720476D01*
X61158381Y-112625238D01*
X61158381Y-112434761D01*
X61110762Y-112339523D01*
X61063143Y-112291904D01*
X60967905Y-112244285D01*
X60777429Y-112244285D01*
X60682190Y-112291904D01*
X60634571Y-112339523D01*
X60586952Y-112434761D01*
X75922143Y-112053666D02*
X75969762Y-112101285D01*
X76017381Y-112244142D01*
X76017381Y-112339380D01*
X75969762Y-112482238D01*
X75874524Y-112577476D01*
X75779286Y-112625095D01*
X75588810Y-112672714D01*
X75445952Y-112672714D01*
X75255476Y-112625095D01*
X75160238Y-112577476D01*
X75065000Y-112482238D01*
X75017381Y-112339380D01*
X75017381Y-112244142D01*
X75065000Y-112101285D01*
X75112619Y-112053666D01*
X76017381Y-111577476D02*
X76017381Y-111387000D01*
X75969762Y-111291761D01*
X75922143Y-111244142D01*
X75779286Y-111148904D01*
X75588810Y-111101285D01*
X75207857Y-111101285D01*
X75112619Y-111148904D01*
X75065000Y-111196523D01*
X75017381Y-111291761D01*
X75017381Y-111482238D01*
X75065000Y-111577476D01*
X75112619Y-111625095D01*
X75207857Y-111672714D01*
X75445952Y-111672714D01*
X75541190Y-111625095D01*
X75588810Y-111577476D01*
X75636429Y-111482238D01*
X75636429Y-111291761D01*
X75588810Y-111196523D01*
X75541190Y-111148904D01*
X75445952Y-111101285D01*
X45664381Y-92686095D02*
X44664381Y-92686095D01*
X44664381Y-92305142D01*
X44712000Y-92209904D01*
X44759619Y-92162285D01*
X44854857Y-92114666D01*
X44997714Y-92114666D01*
X45092952Y-92162285D01*
X45140571Y-92209904D01*
X45188190Y-92305142D01*
X45188190Y-92686095D01*
X45664381Y-91162285D02*
X45664381Y-91733714D01*
X45664381Y-91448000D02*
X44664381Y-91448000D01*
X44807238Y-91543238D01*
X44902476Y-91638476D01*
X44950095Y-91733714D01*
X49601381Y-90463666D02*
X49125190Y-90797000D01*
X49601381Y-91035095D02*
X48601381Y-91035095D01*
X48601381Y-90654142D01*
X48649000Y-90558904D01*
X48696619Y-90511285D01*
X48791857Y-90463666D01*
X48934714Y-90463666D01*
X49029952Y-90511285D01*
X49077571Y-90558904D01*
X49125190Y-90654142D01*
X49125190Y-91035095D01*
X48696619Y-90082714D02*
X48649000Y-90035095D01*
X48601381Y-89939857D01*
X48601381Y-89701761D01*
X48649000Y-89606523D01*
X48696619Y-89558904D01*
X48791857Y-89511285D01*
X48887095Y-89511285D01*
X49029952Y-89558904D01*
X49601381Y-90130333D01*
X49601381Y-89511285D01*
X66762334Y-86304381D02*
X66429000Y-85828190D01*
X66190905Y-86304381D02*
X66190905Y-85304381D01*
X66571858Y-85304381D01*
X66667096Y-85352000D01*
X66714715Y-85399619D01*
X66762334Y-85494857D01*
X66762334Y-85637714D01*
X66714715Y-85732952D01*
X66667096Y-85780571D01*
X66571858Y-85828190D01*
X66190905Y-85828190D01*
X67619477Y-85637714D02*
X67619477Y-86304381D01*
X67381381Y-85256762D02*
X67143286Y-85971048D01*
X67762334Y-85971048D01*
X56205381Y-119165666D02*
X55729190Y-119499000D01*
X56205381Y-119737095D02*
X55205381Y-119737095D01*
X55205381Y-119356142D01*
X55253000Y-119260904D01*
X55300619Y-119213285D01*
X55395857Y-119165666D01*
X55538714Y-119165666D01*
X55633952Y-119213285D01*
X55681571Y-119260904D01*
X55729190Y-119356142D01*
X55729190Y-119737095D01*
X55633952Y-118594238D02*
X55586333Y-118689476D01*
X55538714Y-118737095D01*
X55443476Y-118784714D01*
X55395857Y-118784714D01*
X55300619Y-118737095D01*
X55253000Y-118689476D01*
X55205381Y-118594238D01*
X55205381Y-118403761D01*
X55253000Y-118308523D01*
X55300619Y-118260904D01*
X55395857Y-118213285D01*
X55443476Y-118213285D01*
X55538714Y-118260904D01*
X55586333Y-118308523D01*
X55633952Y-118403761D01*
X55633952Y-118594238D01*
X55681571Y-118689476D01*
X55729190Y-118737095D01*
X55824429Y-118784714D01*
X56014905Y-118784714D01*
X56110143Y-118737095D01*
X56157762Y-118689476D01*
X56205381Y-118594238D01*
X56205381Y-118403761D01*
X56157762Y-118308523D01*
X56110143Y-118260904D01*
X56014905Y-118213285D01*
X55824429Y-118213285D01*
X55729190Y-118260904D01*
X55681571Y-118308523D01*
X55633952Y-118403761D01*
X70937381Y-120022857D02*
X70461190Y-120356191D01*
X70937381Y-120594286D02*
X69937381Y-120594286D01*
X69937381Y-120213333D01*
X69985000Y-120118095D01*
X70032619Y-120070476D01*
X70127857Y-120022857D01*
X70270714Y-120022857D01*
X70365952Y-120070476D01*
X70413571Y-120118095D01*
X70461190Y-120213333D01*
X70461190Y-120594286D01*
X70937381Y-119070476D02*
X70937381Y-119641905D01*
X70937381Y-119356191D02*
X69937381Y-119356191D01*
X70080238Y-119451429D01*
X70175476Y-119546667D01*
X70223095Y-119641905D01*
X69937381Y-118451429D02*
X69937381Y-118356190D01*
X69985000Y-118260952D01*
X70032619Y-118213333D01*
X70127857Y-118165714D01*
X70318333Y-118118095D01*
X70556429Y-118118095D01*
X70746905Y-118165714D01*
X70842143Y-118213333D01*
X70889762Y-118260952D01*
X70937381Y-118356190D01*
X70937381Y-118451429D01*
X70889762Y-118546667D01*
X70842143Y-118594286D01*
X70746905Y-118641905D01*
X70556429Y-118689524D01*
X70318333Y-118689524D01*
X70127857Y-118641905D01*
X70032619Y-118594286D01*
X69985000Y-118546667D01*
X69937381Y-118451429D01*
X72771095Y-92035381D02*
X72771095Y-92844905D01*
X72818714Y-92940143D01*
X72866333Y-92987762D01*
X72961571Y-93035381D01*
X73152048Y-93035381D01*
X73247286Y-92987762D01*
X73294905Y-92940143D01*
X73342524Y-92844905D01*
X73342524Y-92035381D01*
X73771095Y-92130619D02*
X73818714Y-92083000D01*
X73913952Y-92035381D01*
X74152048Y-92035381D01*
X74247286Y-92083000D01*
X74294905Y-92130619D01*
X74342524Y-92225857D01*
X74342524Y-92321095D01*
X74294905Y-92463952D01*
X73723476Y-93035381D01*
X74342524Y-93035381D01*
X54316381Y-110489905D02*
X55125905Y-110489905D01*
X55221143Y-110442286D01*
X55268762Y-110394667D01*
X55316381Y-110299429D01*
X55316381Y-110108952D01*
X55268762Y-110013714D01*
X55221143Y-109966095D01*
X55125905Y-109918476D01*
X54316381Y-109918476D01*
X54649714Y-109013714D02*
X55316381Y-109013714D01*
X54268762Y-109251810D02*
X54983048Y-109489905D01*
X54983048Y-108870857D01*
X69302381Y-110743905D02*
X70111905Y-110743905D01*
X70207143Y-110696286D01*
X70254762Y-110648667D01*
X70302381Y-110553429D01*
X70302381Y-110362952D01*
X70254762Y-110267714D01*
X70207143Y-110220095D01*
X70111905Y-110172476D01*
X69302381Y-110172476D01*
X69302381Y-109220095D02*
X69302381Y-109696286D01*
X69778571Y-109743905D01*
X69730952Y-109696286D01*
X69683333Y-109601048D01*
X69683333Y-109362952D01*
X69730952Y-109267714D01*
X69778571Y-109220095D01*
X69873810Y-109172476D01*
X70111905Y-109172476D01*
X70207143Y-109220095D01*
X70254762Y-109267714D01*
X70302381Y-109362952D01*
X70302381Y-109601048D01*
X70254762Y-109696286D01*
X70207143Y-109743905D01*
D14*
X55635071Y-90532857D02*
X56560357Y-90532857D01*
X56669214Y-90478429D01*
X56723643Y-90424000D01*
X56778071Y-90315143D01*
X56778071Y-90097429D01*
X56723643Y-89988571D01*
X56669214Y-89934143D01*
X56560357Y-89879714D01*
X55635071Y-89879714D01*
X55635071Y-89444285D02*
X55635071Y-88736714D01*
X56070500Y-89117714D01*
X56070500Y-88954428D01*
X56124929Y-88845571D01*
X56179357Y-88791142D01*
X56288214Y-88736714D01*
X56560357Y-88736714D01*
X56669214Y-88791142D01*
X56723643Y-88845571D01*
X56778071Y-88954428D01*
X56778071Y-89281000D01*
X56723643Y-89389857D01*
X56669214Y-89444285D01*
D12*
X61122143Y-87129857D02*
X61169762Y-87177476D01*
X61217381Y-87320333D01*
X61217381Y-87415571D01*
X61169762Y-87558429D01*
X61074524Y-87653667D01*
X60979286Y-87701286D01*
X60788810Y-87748905D01*
X60645952Y-87748905D01*
X60455476Y-87701286D01*
X60360238Y-87653667D01*
X60265000Y-87558429D01*
X60217381Y-87415571D01*
X60217381Y-87320333D01*
X60265000Y-87177476D01*
X60312619Y-87129857D01*
X61217381Y-86177476D02*
X61217381Y-86748905D01*
X61217381Y-86463191D02*
X60217381Y-86463191D01*
X60360238Y-86558429D01*
X60455476Y-86653667D01*
X60503095Y-86748905D01*
X60217381Y-85558429D02*
X60217381Y-85463190D01*
X60265000Y-85367952D01*
X60312619Y-85320333D01*
X60407857Y-85272714D01*
X60598333Y-85225095D01*
X60836429Y-85225095D01*
X61026905Y-85272714D01*
X61122143Y-85320333D01*
X61169762Y-85367952D01*
X61217381Y-85463190D01*
X61217381Y-85558429D01*
X61169762Y-85653667D01*
X61122143Y-85701286D01*
X61026905Y-85748905D01*
X60836429Y-85796524D01*
X60598333Y-85796524D01*
X60407857Y-85748905D01*
X60312619Y-85701286D01*
X60265000Y-85653667D01*
X60217381Y-85558429D01*
X50919143Y-85796381D02*
X50585809Y-85320190D01*
X50347714Y-85796381D02*
X50347714Y-84796381D01*
X50728667Y-84796381D01*
X50823905Y-84844000D01*
X50871524Y-84891619D01*
X50919143Y-84986857D01*
X50919143Y-85129714D01*
X50871524Y-85224952D01*
X50823905Y-85272571D01*
X50728667Y-85320190D01*
X50347714Y-85320190D01*
X51871524Y-85796381D02*
X51300095Y-85796381D01*
X51585809Y-85796381D02*
X51585809Y-84796381D01*
X51490571Y-84939238D01*
X51395333Y-85034476D01*
X51300095Y-85082095D01*
X52823905Y-85796381D02*
X52252476Y-85796381D01*
X52538190Y-85796381D02*
X52538190Y-84796381D01*
X52442952Y-84939238D01*
X52347714Y-85034476D01*
X52252476Y-85082095D01*
X72636143Y-87320381D02*
X72302809Y-86844190D01*
X72064714Y-87320381D02*
X72064714Y-86320381D01*
X72445667Y-86320381D01*
X72540905Y-86368000D01*
X72588524Y-86415619D01*
X72636143Y-86510857D01*
X72636143Y-86653714D01*
X72588524Y-86748952D01*
X72540905Y-86796571D01*
X72445667Y-86844190D01*
X72064714Y-86844190D01*
X73588524Y-87320381D02*
X73017095Y-87320381D01*
X73302809Y-87320381D02*
X73302809Y-86320381D01*
X73207571Y-86463238D01*
X73112333Y-86558476D01*
X73017095Y-86606095D01*
X73969476Y-86415619D02*
X74017095Y-86368000D01*
X74112333Y-86320381D01*
X74350429Y-86320381D01*
X74445667Y-86368000D01*
X74493286Y-86415619D01*
X74540905Y-86510857D01*
X74540905Y-86606095D01*
X74493286Y-86748952D01*
X73921857Y-87320381D01*
X74540905Y-87320381D01*
D14*
X55635071Y-86341857D02*
X56560357Y-86341857D01*
X56669214Y-86287429D01*
X56723643Y-86233000D01*
X56778071Y-86124143D01*
X56778071Y-85906429D01*
X56723643Y-85797571D01*
X56669214Y-85743143D01*
X56560357Y-85688714D01*
X55635071Y-85688714D01*
X56124929Y-84981142D02*
X56070500Y-85090000D01*
X56016071Y-85144428D01*
X55907214Y-85198857D01*
X55852786Y-85198857D01*
X55743929Y-85144428D01*
X55689500Y-85090000D01*
X55635071Y-84981142D01*
X55635071Y-84763428D01*
X55689500Y-84654571D01*
X55743929Y-84600142D01*
X55852786Y-84545714D01*
X55907214Y-84545714D01*
X56016071Y-84600142D01*
X56070500Y-84654571D01*
X56124929Y-84763428D01*
X56124929Y-84981142D01*
X56179357Y-85090000D01*
X56233786Y-85144428D01*
X56342643Y-85198857D01*
X56560357Y-85198857D01*
X56669214Y-85144428D01*
X56723643Y-85090000D01*
X56778071Y-84981142D01*
X56778071Y-84763428D01*
X56723643Y-84654571D01*
X56669214Y-84600142D01*
X56560357Y-84545714D01*
X56342643Y-84545714D01*
X56233786Y-84600142D01*
X56179357Y-84654571D01*
X56124929Y-84763428D01*
D12*
X71666667Y-132451881D02*
X71333333Y-131975690D01*
X71095238Y-132451881D02*
X71095238Y-131451881D01*
X71476191Y-131451881D01*
X71571429Y-131499500D01*
X71619048Y-131547119D01*
X71666667Y-131642357D01*
X71666667Y-131785214D01*
X71619048Y-131880452D01*
X71571429Y-131928071D01*
X71476191Y-131975690D01*
X71095238Y-131975690D01*
X72095238Y-131928071D02*
X72428572Y-131928071D01*
X72571429Y-132451881D02*
X72095238Y-132451881D01*
X72095238Y-131451881D01*
X72571429Y-131451881D01*
X73333334Y-131928071D02*
X73000000Y-131928071D01*
X73000000Y-132451881D02*
X73000000Y-131451881D01*
X73476191Y-131451881D01*
X74000000Y-131451881D02*
X74000000Y-131689976D01*
X73761905Y-131594738D02*
X74000000Y-131689976D01*
X74238096Y-131594738D01*
X73857143Y-131880452D02*
X74000000Y-131689976D01*
X74142858Y-131880452D01*
X74761905Y-131451881D02*
X74761905Y-131689976D01*
X74523810Y-131594738D02*
X74761905Y-131689976D01*
X75000001Y-131594738D01*
X74619048Y-131880452D02*
X74761905Y-131689976D01*
X74904763Y-131880452D01*
M02*
