%TF.GenerationSoftware,KiCad,Pcbnew,0.201511171411+6319~30~ubuntu15.10.1-product*%
%TF.CreationDate,2015-12-04T10:58:07+01:00*%
%TF.ProjectId,ESC-Base,4553432D426173652E6B696361645F70,rev?*%
%TF.FileFunction,Soldermask,Top*%
%FSLAX46Y46*%
G04 Gerber Fmt 4.6, Leading zero omitted, Abs format (unit mm)*
G04 Created by KiCad (PCBNEW 0.201511171411+6319~30~ubuntu15.10.1-product) date Fr 04 Dez 2015 10:58:07 CET*
%MOMM*%
G01*
G04 APERTURE LIST*
%ADD10C,0.100000*%
%ADD11R,4.200000X5.200000*%
%ADD12O,4.200000X6.200000*%
%ADD13R,4.200000X4.200000*%
%ADD14O,4.200000X4.200000*%
%ADD15C,4.200000*%
%ADD16R,1.927200X2.232000*%
%ADD17O,1.927200X2.232000*%
%ADD18R,1.700000X1.450000*%
%ADD19R,1.450000X1.700000*%
%ADD20R,2.232000X1.927200*%
%ADD21O,2.232000X1.927200*%
%ADD22R,1.100000X1.400000*%
%ADD23R,1.400000X1.100000*%
%ADD24R,0.700000X2.200000*%
%ADD25R,10.700000X7.600000*%
%ADD26R,2.400000X2.400000*%
%ADD27R,1.343000X0.708000*%
%ADD28R,1.500480X1.000100*%
G04 APERTURE END LIST*
D10*
D11*
X65278000Y-123698000D03*
D12*
X65278000Y-115798000D03*
D11*
X50292000Y-123698000D03*
D12*
X50292000Y-115798000D03*
D13*
X60261500Y-96837500D03*
D14*
X55181500Y-96837500D03*
D13*
X67818000Y-138938000D03*
D15*
X62738000Y-138938000D03*
X57658000Y-138938000D03*
X52578000Y-138938000D03*
D13*
X67818000Y-132842000D03*
D15*
X62738000Y-132842000D03*
X57658000Y-132842000D03*
X52578000Y-132842000D03*
D16*
X74930000Y-126746000D03*
D17*
X72390000Y-126746000D03*
X69850000Y-126746000D03*
X74930000Y-124206000D03*
X72390000Y-124206000D03*
X69850000Y-124206000D03*
D16*
X60706000Y-125984000D03*
D17*
X58166000Y-125984000D03*
X55626000Y-125984000D03*
X60706000Y-123444000D03*
X58166000Y-123444000D03*
X55626000Y-123444000D03*
D18*
X49764000Y-99504500D03*
X47264000Y-99504500D03*
X49764000Y-97282000D03*
X47264000Y-97282000D03*
X49764000Y-102362000D03*
X47264000Y-102362000D03*
D19*
X61023500Y-88412000D03*
X61023500Y-90912000D03*
X60960000Y-111041500D03*
X60960000Y-108541500D03*
D18*
X73830500Y-115252500D03*
X71330500Y-115252500D03*
D19*
X58801000Y-112819500D03*
X58801000Y-110319500D03*
X73914000Y-113137000D03*
X73914000Y-110637000D03*
D20*
X47244000Y-91948000D03*
D21*
X47244000Y-89408000D03*
X47244000Y-86868000D03*
D22*
X49720500Y-88539500D03*
X49720500Y-86339500D03*
D23*
X68029000Y-87249000D03*
X65829000Y-87249000D03*
D22*
X57023000Y-120099000D03*
X57023000Y-117899000D03*
X71882000Y-120416500D03*
X71882000Y-118216500D03*
D24*
X70332000Y-103186000D03*
X71132000Y-103186000D03*
X69532000Y-103186000D03*
X68732000Y-103186000D03*
X67932000Y-103186000D03*
X67132000Y-103186000D03*
X66332000Y-103186000D03*
X65532000Y-103186000D03*
X65532000Y-91186000D03*
X66332000Y-91186000D03*
X67132000Y-91186000D03*
X67932000Y-91186000D03*
X68732000Y-91186000D03*
X69532000Y-91186000D03*
X71132000Y-91186000D03*
X70332000Y-91186000D03*
D25*
X68332000Y-97186000D03*
D26*
X68332000Y-97186000D03*
X66332000Y-97186000D03*
X66332000Y-95186000D03*
X68332000Y-99186000D03*
X70332000Y-97186000D03*
X70332000Y-99186000D03*
X70332000Y-95186000D03*
X68332000Y-95186000D03*
X66332000Y-99186000D03*
D27*
X56769000Y-107823000D03*
X56769000Y-109093000D03*
X56769000Y-110363000D03*
X56769000Y-111633000D03*
X50419000Y-111633000D03*
X50419000Y-110363000D03*
X50419000Y-109093000D03*
X50419000Y-107823000D03*
X71755000Y-108077000D03*
X71755000Y-109347000D03*
X71755000Y-110617000D03*
X71755000Y-111887000D03*
X65405000Y-111887000D03*
X65405000Y-110617000D03*
X65405000Y-109347000D03*
X65405000Y-108077000D03*
D28*
X51866800Y-90932000D03*
X51866800Y-88392000D03*
X58369200Y-88392000D03*
X58369200Y-90932000D03*
D19*
X62865000Y-87737000D03*
X62865000Y-85237000D03*
D23*
X49741000Y-84328000D03*
X47541000Y-84328000D03*
X74379000Y-88265000D03*
X72179000Y-88265000D03*
D28*
X51866800Y-86741000D03*
X51866800Y-84201000D03*
X58369200Y-84201000D03*
X58369200Y-86741000D03*
M02*
